<svg xmlns="http://www.w3.org/2000/svg" xmlns:xlink="http://www.w3.org/1999/xlink" viewBox="0 0 288.95 282.77"><defs><style>.cls-1{fill:none;}.cls-2{isolation:isolate;}.cls-3{clip-path:url(#clip-path);}.cls-4{fill:#3c2764;}.cls-5{fill:#3e2967;}.cls-6{fill:#402a69;}.cls-7{fill:#422c6c;}.cls-8{fill:#432e6e;}.cls-9{fill:#453071;}.cls-10{fill:#473173;}.cls-11{fill:#493376;}.cls-12{fill:#4a3479;}.cls-13{fill:#4c367b;}.cls-14{fill:#aaacae;}.cls-15{fill:#483275;}.cls-16{fill:#4a3478;}.cls-17{fill:#b0b2b4;}.cls-18{fill:#8d8e90;}.cls-19{fill:#8c8d90;}.cls-20{fill:#3a2460;}.cls-21{clip-path:url(#clip-path-2);}.cls-22{fill:#3b2562;}.cls-23{clip-path:url(#clip-path-3);}.cls-24{fill:#8e8f92;}.cls-25{fill:#919395;}.cls-26{clip-path:url(#clip-path-4);}.cls-27{clip-path:url(#clip-path-5);}.cls-28{fill:#959799;}.cls-29{fill:#999b9d;}.cls-30{fill:#9d9ea1;}.cls-31{fill:#a1a2a4;}.cls-32{fill:#a5a6a8;}.cls-33{fill:#a8aaac;}.cls-34{fill:#acaeb0;}.cls-35{fill:#b4b6b7;}.cls-36{clip-path:url(#clip-path-6);}.cls-37{clip-path:url(#clip-path-7);}.cls-38{clip-path:url(#clip-path-8);}.cls-39{clip-path:url(#clip-path-9);}.cls-40{clip-path:url(#clip-path-10);}.cls-41{clip-path:url(#clip-path-11);}.cls-42{clip-path:url(#clip-path-12);}.cls-43{clip-path:url(#clip-path-13);}.cls-44{fill:#3b2561;}.cls-45{clip-path:url(#clip-path-14);}.cls-46{clip-path:url(#clip-path-15);}.cls-47{clip-path:url(#clip-path-16);}.cls-48{clip-path:url(#clip-path-17);}.cls-49{clip-path:url(#clip-path-18);}.cls-50{clip-path:url(#clip-path-19);}.cls-51{clip-path:url(#clip-path-20);}.cls-52{fill:#452f71;}.cls-53{fill:#493276;}.cls-54{fill:#4b3478;}.cls-55{clip-path:url(#clip-path-21);}.cls-56{clip-path:url(#clip-path-22);}.cls-57{clip-path:url(#clip-path-23);}.cls-58{clip-path:url(#clip-path-24);}.cls-59{clip-path:url(#clip-path-25);}.cls-60{fill:#543d87;}.cls-61{clip-path:url(#clip-path-26);}.cls-62{fill:#442d6e;}.cls-63{fill:#3e2866;}.cls-64{fill:#3c2664;}.cls-65{clip-path:url(#clip-path-27);}.cls-66{clip-path:url(#clip-path-28);}.cls-67{fill:#8c8e90;}.cls-68{fill:#3a2360;}.cls-69{fill:#abacae;}.cls-70{fill:#a9aaac;}.cls-71{fill:#483174;}.cls-72{fill:#c8c9ca;}.cls-73{clip-path:url(#clip-path-29);}.cls-74{fill:#543e87;}.cls-75{clip-path:url(#clip-path-30);}.cls-76{clip-path:url(#clip-path-31);}.cls-77{fill:#989a9c;}.cls-78{clip-path:url(#clip-path-32);}.cls-79{clip-path:url(#clip-path-33);}.cls-80{clip-path:url(#clip-path-34);}</style><clipPath id="clip-path"><path class="cls-1" d="M4.83,148.58l1.47,1.13a4.88,4.88,0,0,0-1.13,6.61L3.7,155.19A4.88,4.88,0,0,1,4.83,148.58Z"/></clipPath><clipPath id="clip-path-2"><path class="cls-1" d="M194.47,3.8l1.47,1.13a4.56,4.56,0,0,0-5.6.18L188.87,4A4.55,4.55,0,0,1,194.47,3.8Z"/></clipPath><clipPath id="clip-path-3"><path class="cls-1" d="M122,114.15a25.77,25.77,0,0,0-9.69,4.75l-.18-.13-.18-.14-.19-.15-.19-.14-.19-.15-.19-.15-.18-.14-.17-.13a25.48,25.48,0,0,1,9.69-4.75Z"/></clipPath><clipPath id="clip-path-4"><path class="cls-1" d="M122,114.15h0l0,0,0,0,0,0,0,0,0,0h0l-.15-.12-.16-.12-.17-.13-.17-.13-.17-.13-.16-.13-.16-.12-.16-.12a22.16,22.16,0,0,1,6.67-.59l1.47,1.13A22.49,22.49,0,0,0,122,114.15Z"/></clipPath><clipPath id="clip-path-5"><path class="cls-1" d="M112.25,119c-10.09,7.92-13,21.65-6.52,30.58l-1.47-1.14c-6.49-8.93-3.57-22.65,6.52-30.57l.09-.07,1.47,1.13Z"/></clipPath><clipPath id="clip-path-6"><path class="cls-1" d="M113.07,120.11c-9.45,7.43-12.21,20.2-6.17,28.52l-1.47-1.14c-6-8.32-3.28-21.09,6.17-28.52a22.86,22.86,0,0,1,15.53-5.08L128.6,115A22.81,22.81,0,0,0,113.07,120.11Z"/></clipPath><clipPath id="clip-path-7"><path class="cls-1" d="M105.73,149.55a17.45,17.45,0,0,0,3.38,3.48l-1.47-1.14a17.19,17.19,0,0,1-3.38-3.48l.74.57.29.22.36.28A.5.5,0,0,1,105.73,149.55Z"/></clipPath><clipPath id="clip-path-8"><path class="cls-1" d="M106.9,148.63a15.89,15.89,0,0,0,3.15,3.24l-1.47-1.13a15.69,15.69,0,0,1-3.15-3.25l.74.57.38.3.09.07A1.64,1.64,0,0,1,106.9,148.63Z"/></clipPath><clipPath id="clip-path-9"><path class="cls-1" d="M128.7,113.56a.24.24,0,0,1-.08-.06l-1.39-1.07a95.06,95.06,0,0,1,12.31-.29l1.47,1.13A96.88,96.88,0,0,0,128.7,113.56Z"/></clipPath><clipPath id="clip-path-10"><path class="cls-1" d="M141,113.27h0l-.17-.13-.18-.14-.19-.15-.19-.14-.74-.57h0Z"/></clipPath><clipPath id="clip-path-11"><path class="cls-1" d="M139.36,113.59l.06,0,.11.09.09.07,0,0,.05,0-.36-.28Z"/></clipPath><clipPath id="clip-path-12"><path class="cls-1" d="M109.11,153l-1.47-1.14c4.83,3.73,11.53,4.79,18.09,2.84l1.47,1.13C120.64,157.81,113.94,156.75,109.11,153Z"/></clipPath><clipPath id="clip-path-13"><path class="cls-1" d="M110.05,151.87l-1.47-1.13c5.64,4.35,14,4.68,21.24.77l1.47,1.13C124,156.56,115.69,156.23,110.05,151.87Z"/></clipPath><clipPath id="clip-path-14"><path class="cls-1" d="M124.28,163.16l-.08-.06-.08-.06L124,163l-.08-.07-.09-.07-.08-.06-.09-.07-.07-.06-.1-.07-.1-.08-.1-.08-.11-.08-.1-.08-.11-.08-.1-.08-.09-.07a24.59,24.59,0,0,1,2.92-7.3l1.47,1.13A24.7,24.7,0,0,0,124.28,163.16Z"/></clipPath><clipPath id="clip-path-15"><path class="cls-1" d="M123.75,167.11l0,0,0,0,0,0,0,0-.19-.15-.12-.1-.14-.1-.14-.11-.14-.11-.55-.42a22.43,22.43,0,0,1,.53-3.95l1.47,1.13A22.43,22.43,0,0,0,123.75,167.11Z"/></clipPath><clipPath id="clip-path-16"><path class="cls-1" d="M169.37,117.34c-1.63-.27-21.33-3.58-28.35-4.07l-.17-.13-.18-.14-.19-.15-.2-.14-.19-.15-.19-.15-.18-.14-.17-.13c7,.48,26.72,3.8,28.35,4.06Z"/></clipPath><clipPath id="clip-path-17"><path class="cls-1" d="M140.82,114.73a95.14,95.14,0,0,0-12.22.3l-1.47-1.14a95.14,95.14,0,0,1,12.22-.3l1.48,1.14-1.47-1.14c7.17.5,27.23,3.89,28.28,4.07l1.47,1.14C168.06,118.62,148,115.23,140.82,114.73Z"/></clipPath><clipPath id="clip-path-18"><path class="cls-1" d="M169.11,118.8a.7.7,0,0,1-.17-.13l-.09-.07-.37-.3-.84-.64a4.37,4.37,0,0,1,2.49.89l1.47,1.14A4.3,4.3,0,0,0,169.11,118.8Z"/></clipPath><clipPath id="clip-path-19"><path class="cls-1" d="M169.37,117.34a1.15,1.15,0,0,1-.17-.14l-.18-.14-.39-.29-.73-.57a5.73,5.73,0,0,1,3.15,1.17l1.47,1.13A5.64,5.64,0,0,0,169.37,117.34Z"/></clipPath><clipPath id="clip-path-20"><path class="cls-1" d="M170.13,118.55l1.47,1.14a4.33,4.33,0,0,1,.84.87,4.65,4.65,0,0,1,.72,3.81l-1.47-1.14a4.66,4.66,0,0,0-.72-3.81A4.33,4.33,0,0,0,170.13,118.55Z"/></clipPath><clipPath id="clip-path-21"><path class="cls-1" d="M171,117.37l1.47,1.13a5.46,5.46,0,0,1,1.11,1.14,6.07,6.07,0,0,1,.95,4.91l-1.47-1.13a6.13,6.13,0,0,0-.95-4.92A5.66,5.66,0,0,0,171,117.37Z"/></clipPath><clipPath id="clip-path-22"><path class="cls-1" d="M127.18,179.07a17.12,17.12,0,0,0,3.4,3.5l-1.47-1.14a16.87,16.87,0,0,1-3.4-3.5,18.83,18.83,0,0,1-3.43-12l1.47,1.13A18.86,18.86,0,0,0,127.18,179.07Z"/></clipPath><clipPath id="clip-path-23"><path class="cls-1" d="M128.35,178.15a15.69,15.69,0,0,0,3.15,3.25L130,180.26a15.89,15.89,0,0,1-3.15-3.24c-5.29-7.28-3.83-18,2.94-25.51l1.47,1.13C124.52,160.18,123.06,170.87,128.35,178.15Z"/></clipPath><clipPath id="clip-path-24"><path class="cls-1" d="M171.69,123.23l1.47,1.14c-.17,1-3.28,20.09-4.59,26.76-1,5-2,9.13-2.86,12.14l-1.47-1.13c.83-3,1.86-7.11,2.86-12.14C168.41,143.33,171.52,124.24,171.69,123.23Z"/></clipPath><clipPath id="clip-path-25"><path class="cls-1" d="M173.1,123.42l1.47,1.13c-.18,1.1-3.32,20.31-4.6,26.77-.84,4.27-1.81,8.35-2.85,12.13l-1.47-1.14c1-3.77,2-7.85,2.85-12.12C169.78,143.72,172.92,124.52,173.1,123.42Z"/></clipPath><clipPath id="clip-path-26"><path class="cls-1" d="M131.5,181.4,130,180.26c6.62,5.11,16.89,4.68,24.92-1.63a24.1,24.1,0,0,0,9.29-16.49l1.47,1.13a24.14,24.14,0,0,1-9.29,16.5C148.39,186.08,138.12,186.5,131.5,181.4Z"/></clipPath><clipPath id="clip-path-27"><path class="cls-1" d="M130.58,182.57l-1.47-1.14c7.1,5.48,18.1,5.06,26.66-1.67a25.59,25.59,0,0,0,9.88-17.45l1.47,1.14a25.63,25.63,0,0,1-9.88,17.45C148.68,187.62,137.68,188.05,130.58,182.57Z"/></clipPath><clipPath id="clip-path-28"><path class="cls-1" d="M94.49,279,93,277.83a3.94,3.94,0,0,1-.83-.85l1.47,1.13A4,4,0,0,0,94.49,279Z"/></clipPath><clipPath id="clip-path-29"><path class="cls-1" d="M194.47,3.8l1.47,1.13a4.19,4.19,0,0,1,.83.85L195.3,4.65A3.94,3.94,0,0,0,194.47,3.8Z"/></clipPath><clipPath id="clip-path-30"><path class="cls-1" d="M100.09,278.8a4.57,4.57,0,0,1-5.6.17L93,277.84a4.56,4.56,0,0,0,5.6-.18Z"/></clipPath><clipPath id="clip-path-31"><path class="cls-1" d="M92.65,281.34l-1.47-1.13a7.4,7.4,0,0,0,9.08-.28l1.47,1.13A7.37,7.37,0,0,1,92.65,281.34Z"/></clipPath><clipPath id="clip-path-32"><path class="cls-1" d="M284.12,134.2l-1.47-1.14a4.88,4.88,0,0,0,1.13-6.62l1.47,1.14A4.88,4.88,0,0,1,284.12,134.2Z"/></clipPath><clipPath id="clip-path-33"><path class="cls-1" d="M196.3,1.42l1.47,1.14a6.76,6.76,0,0,1,1.34,1.38l-1.47-1.13A6.81,6.81,0,0,0,196.3,1.42Z"/></clipPath><clipPath id="clip-path-34"><path class="cls-1" d="M286.13,124.6l1.47,1.13a7.92,7.92,0,0,1-1.83,10.73l-1.47-1.13A7.92,7.92,0,0,0,286.13,124.6Z"/></clipPath></defs><g id="Layer_2" data-name="Layer 2"><g id="Layer_1-2" data-name="Layer 1"><g class="cls-2"><g class="cls-2"><g class="cls-3"><g class="cls-2"><path class="cls-4" d="M4.83,148.58l1.47,1.13-.07.06-1.47-1.14.07,0"/><path class="cls-5" d="M4.76,148.63l1.47,1.14a4.48,4.48,0,0,0-.4.36L4.36,149l.4-.36"/><path class="cls-6" d="M4.36,149l1.47,1.14c-.11.11-.22.23-.32.35L4,149.35l.32-.36"/><path class="cls-7" d="M4,149.35l1.47,1.13a4.22,4.22,0,0,0-.27.36l-1.47-1.13a4.22,4.22,0,0,1,.27-.36"/><path class="cls-8" d="M3.77,149.71l1.47,1.13c-.09.13-.17.26-.24.38l-1.47-1.13a3,3,0,0,1,.24-.38"/><path class="cls-9" d="M3.53,150.09,5,151.22c-.08.14-.15.28-.21.41L3.32,150.5a3.17,3.17,0,0,1,.21-.41"/><path class="cls-10" d="M3.32,150.5l1.47,1.13a3.66,3.66,0,0,0-.18.46L3.14,151a4.22,4.22,0,0,1,.18-.45"/><path class="cls-11" d="M3.14,151l1.47,1.14a4.61,4.61,0,0,0-.15.53L3,151.49a5.44,5.44,0,0,1,.15-.54"/><path class="cls-12" d="M3,151.49l1.47,1.13a4.53,4.53,0,0,0-.11.71L2.88,152.2a4.2,4.2,0,0,1,.11-.71"/><path class="cls-13" d="M2.88,152.2l1.47,1.13a4.54,4.54,0,0,0,.44,2.35l-1.47-1.14a4.52,4.52,0,0,1-.44-2.34"/><path class="cls-12" d="M3.32,154.54l1.47,1.14a4.88,4.88,0,0,0,.34.58l-1.47-1.13a3.91,3.91,0,0,1-.34-.59"/><path class="cls-11" d="M3.66,155.13l1.47,1.13,0,.06L3.7,155.19l0-.06"/></g></g></g><polygon class="cls-14" points="32.68 134.75 34.15 135.88 19.23 160.58 17.76 159.44 32.68 134.75"/><polygon class="cls-15" points="32.74 137.36 34.21 138.5 20.96 160.41 19.49 159.28 32.74 137.36"/><polygon class="cls-16" points="32.74 137.36 34.21 138.5 37.39 142.87 35.92 141.74 32.74 137.36"/><polygon class="cls-15" points="35.92 141.74 37.39 142.87 35.08 146.75 33.61 145.61 35.92 141.74"/><polygon class="cls-12" points="19.49 159.28 20.96 160.41 23.04 163.28 21.57 162.15 19.49 159.28"/><polygon class="cls-12" points="32.68 134.75 34.15 135.88 39.11 142.71 37.64 141.57 32.68 134.75"/><polygon class="cls-10" points="30.87 149.52 32.34 150.65 28.28 156.92 26.81 155.78 30.87 149.52"/><polygon class="cls-17" points="17.76 159.44 19.23 160.58 22.42 164.96 20.95 163.83 17.76 159.44"/><polygon class="cls-15" points="37.64 141.57 39.11 142.71 36.8 146.58 35.33 145.45 37.64 141.57"/><polygon class="cls-18" points="33.71 153.43 35.18 154.56 28.28 156.92 26.81 155.78 33.71 153.43"/><polygon class="cls-17" points="30.87 149.52 32.34 150.65 35.18 154.56 33.71 153.43 30.87 149.52"/><polygon class="cls-12" points="35.33 145.45 36.8 146.58 40.16 151.21 38.69 150.08 35.33 145.45"/><polygon class="cls-16" points="33.61 145.61 35.08 146.75 39.54 152.88 38.07 151.75 33.61 145.61"/><polygon class="cls-19" points="42.91 148.83 44.38 149.96 40.16 151.21 38.69 150.08 42.91 148.83"/><polygon class="cls-20" points="42.28 150.5 43.76 151.63 39.54 152.88 38.07 151.75 42.28 150.5"/><polygon class="cls-16" points="42.28 150.5 43.76 151.63 46.94 156.02 45.47 154.88 42.28 150.5"/><polygon class="cls-20" points="45.47 154.88 46.94 156.02 23.04 163.28 21.57 162.15 45.47 154.88"/><polygon class="cls-12" points="42.91 148.83 44.38 149.96 49.33 156.79 47.86 155.65 42.91 148.83"/><polygon class="cls-20" points="47.86 155.65 49.33 156.79 22.42 164.96 20.95 163.83 47.86 155.65"/><polygon class="cls-6" points="188.87 3.98 190.34 5.11 6.3 149.71 4.83 148.58 188.87 3.98"/><g class="cls-2"><g class="cls-21"><g class="cls-2"><path class="cls-22" d="M194.47,3.8l1.47,1.13a4.51,4.51,0,0,0-5.13-.15l-1.47-1.13a4.51,4.51,0,0,1,5.13.15"/><path class="cls-4" d="M189.34,3.65l1.47,1.13a5,5,0,0,0-.47.33L188.87,4a5,5,0,0,1,.47-.33"/></g></g></g><g class="cls-2"><g class="cls-23"><g class="cls-2"><path class="cls-24" d="M127.23,112.43l1.47,1.13a23.7,23.7,0,0,0-14,3.68l-1.47-1.14a23.69,23.69,0,0,1,14-3.67"/><path class="cls-25" d="M113.25,116.1l1.47,1.14a26.83,26.83,0,0,0-2.47,1.73l-.36.29-1.47-1.13.36-.29a29.06,29.06,0,0,1,2.47-1.74"/></g></g></g><g class="cls-2"><g class="cls-26"><g class="cls-2"><path class="cls-24" d="M127.23,112.43l1.47,1.13a23.7,23.7,0,0,0-14,3.68l-1.47-1.14a23.69,23.69,0,0,1,14-3.67"/></g></g></g><g class="cls-2"><g class="cls-27"><g class="cls-2"><path class="cls-25" d="M113.25,116.1l1.47,1.14a26.83,26.83,0,0,0-2.47,1.73l-.36.29-1.47-1.13.36-.29a29.06,29.06,0,0,1,2.47-1.74"/><path class="cls-28" d="M110.42,118.13l1.47,1.13a27.14,27.14,0,0,0-2.1,1.89L108.32,120a27.14,27.14,0,0,1,2.1-1.89"/><path class="cls-29" d="M108.32,120l1.47,1.13q-.89.9-1.68,1.86l-1.47-1.14c.53-.64,1.09-1.26,1.68-1.85"/><path class="cls-30" d="M106.64,121.87l1.47,1.14q-.75.9-1.41,1.86l-1.47-1.13c.44-.64.91-1.26,1.41-1.87"/><path class="cls-31" d="M105.23,123.74l1.47,1.13c-.44.63-.84,1.28-1.21,1.93L104,125.67c.37-.66.77-1.3,1.21-1.93"/><path class="cls-32" d="M104,125.67l1.47,1.13c-.38.67-.73,1.36-1,2L103,127.71q.48-1,1-2"/><path class="cls-33" d="M103,127.71l1.47,1.14c-.33.73-.63,1.48-.89,2.23L102.08,130c.26-.75.56-1.5.89-2.24"/><path class="cls-34" d="M102.08,130l1.47,1.13a23.67,23.67,0,0,0-.72,2.55l-1.47-1.14a23.5,23.5,0,0,1,.72-2.54"/><path class="cls-17" d="M101.36,132.49l1.47,1.14a22.71,22.71,0,0,0-.49,3.26l-1.47-1.14a23.14,23.14,0,0,1,.49-3.26"/><path class="cls-35" d="M100.87,135.75l1.47,1.14a19.38,19.38,0,0,0,1.81,10l-1.47-1.14a19.35,19.35,0,0,1-1.81-10"/><path class="cls-17" d="M102.68,145.77l1.47,1.14a16.47,16.47,0,0,0,1.41,2.39l-1.47-1.13a17.12,17.12,0,0,1-1.41-2.4"/><path class="cls-34" d="M104.09,148.17l1.47,1.13.17.25a17.91,17.91,0,0,0,1.16,1.42l-1.47-1.13a18.08,18.08,0,0,1-1.16-1.43l-.17-.24"/></g></g></g><g class="cls-2"><g class="cls-36"><g class="cls-2"><path class="cls-22" d="M127.13,113.89,128.6,115a22.35,22.35,0,0,0-13.22,3.46l-1.47-1.13a22.29,22.29,0,0,1,13.22-3.47"/><path class="cls-4" d="M113.91,117.36l1.47,1.13q-1.17.74-2.31,1.62l-.34.27-1.47-1.13.34-.28a26,26,0,0,1,2.31-1.61"/><path class="cls-5" d="M111.26,119.25l1.47,1.13a26.19,26.19,0,0,0-2,1.79L109.28,121a24.21,24.21,0,0,1,2-1.79"/><path class="cls-6" d="M109.28,121l1.47,1.13c-.56.56-1.09,1.15-1.59,1.75l-1.47-1.13c.5-.61,1-1.19,1.59-1.75"/><path class="cls-7" d="M107.69,122.79l1.47,1.13c-.47.57-.92,1.16-1.33,1.76l-1.47-1.14c.41-.6.86-1.18,1.33-1.75"/><path class="cls-8" d="M106.36,124.54l1.47,1.14c-.41.59-.79,1.2-1.14,1.81l-1.47-1.13c.35-.62.73-1.23,1.14-1.82"/><path class="cls-9" d="M105.22,126.36l1.47,1.13c-.35.63-.68,1.27-1,1.91l-1.47-1.13c.29-.65.62-1.29,1-1.91"/><path class="cls-10" d="M104.25,128.27l1.47,1.13c-.32.69-.59,1.39-.84,2.1l-1.47-1.14a21.71,21.71,0,0,1,.84-2.09"/><path class="cls-11" d="M103.41,130.36l1.47,1.14a22.48,22.48,0,0,0-.67,2.36l-1.47-1.13a22,22,0,0,1,.67-2.37"/><path class="cls-12" d="M102.74,132.73l1.47,1.13a21.11,21.11,0,0,0-.45,3l-1.47-1.13a20.9,20.9,0,0,1,.45-3"/><path class="cls-13" d="M102.29,135.76l1.47,1.13a18.06,18.06,0,0,0,1.67,9.29L104,145a18,18,0,0,1-1.67-9.28"/><path class="cls-12" d="M104,145l1.47,1.14a16.57,16.57,0,0,0,1.31,2.22l-1.47-1.13A16.25,16.25,0,0,1,104,145"/><path class="cls-11" d="M105.27,147.27l1.47,1.13.16.23A15.65,15.65,0,0,0,108,150l-1.47-1.13a15.8,15.8,0,0,1-1.08-1.34l-.16-.22"/></g></g></g><g class="cls-2"><g class="cls-37"><g class="cls-2"><path class="cls-34" d="M104.09,148.17l1.47,1.13.17.25a17.91,17.91,0,0,0,1.16,1.42l-1.47-1.13a18.08,18.08,0,0,1-1.16-1.43l-.17-.24"/><path class="cls-33" d="M105.42,149.84l1.47,1.13a15.06,15.06,0,0,0,1.33,1.32l-1.47-1.14a16.44,16.44,0,0,1-1.33-1.31"/><path class="cls-32" d="M106.75,151.15l1.47,1.14.89.74-1.47-1.13c-.3-.24-.6-.49-.89-.75"/></g></g></g><g class="cls-2"><g class="cls-38"><g class="cls-2"><path class="cls-11" d="M105.27,147.27l1.47,1.13.16.23A15.65,15.65,0,0,0,108,150l-1.47-1.13a15.8,15.8,0,0,1-1.08-1.34l-.16-.22"/><path class="cls-10" d="M106.51,148.83,108,150a15.85,15.85,0,0,0,1.24,1.22l-1.47-1.13a15.85,15.85,0,0,1-1.24-1.22"/><path class="cls-9" d="M107.75,150.05l1.47,1.13c.27.24.55.47.83.69l-1.47-1.13c-.28-.22-.56-.45-.83-.69"/></g></g></g><g class="cls-2"><g class="cls-39"><g class="cls-2"><path class="cls-24" d="M167.9,116.2l1.47,1.14c-1.63-.27-21.35-3.58-28.36-4.07a96.88,96.88,0,0,0-12.31.29l-1.47-1.13a95.06,95.06,0,0,1,12.31-.29c7,.48,26.73,3.8,28.36,4.06"/></g></g></g><g class="cls-2"><g class="cls-40"><g class="cls-2"><path class="cls-24" d="M167.9,116.2l1.47,1.14c-1.63-.27-21.35-3.58-28.36-4.07a96.88,96.88,0,0,0-12.31.29l-1.47-1.13a95.06,95.06,0,0,1,12.31-.29c7,.48,26.73,3.8,28.36,4.06"/></g></g></g><g class="cls-2"><g class="cls-41"><g class="cls-2"><path class="cls-22" d="M167.64,117.66l1.47,1.14c-1.05-.18-21.12-3.57-28.29-4.07a95.14,95.14,0,0,0-12.22.3l-1.47-1.14a95.14,95.14,0,0,1,12.22-.3c7.17.5,27.24,3.89,28.29,4.07"/></g></g></g><g class="cls-2"><g class="cls-42"><g class="cls-2"><path class="cls-22" d="M125.73,154.73l1.47,1.13c-6.56,1.95-13.26.89-18.09-2.83l-1.47-1.14c4.83,3.73,11.53,4.79,18.09,2.84"/></g></g></g><g class="cls-2"><g class="cls-43"><g class="cls-2"><path class="cls-44" d="M129.82,151.51l1.47,1.13c-7.29,3.92-15.6,3.59-21.24-.77l-1.47-1.13c5.64,4.35,14,4.68,21.24.77"/></g></g></g><g class="cls-2"><g class="cls-45"><g class="cls-2"><path class="cls-31" d="M125.73,154.73l1.47,1.13-.27.47-1.47-1.14.27-.46"/><path class="cls-32" d="M125.46,155.19l1.47,1.14c-.38.66-.72,1.34-1,2l-1.47-1.13c.32-.69.66-1.37,1-2"/><path class="cls-33" d="M124.42,157.23l1.47,1.13c-.33.73-.62,1.47-.88,2.21l-1.47-1.13c.26-.74.55-1.48.88-2.21"/><path class="cls-34" d="M123.54,159.44l1.47,1.13a24.17,24.17,0,0,0-.72,2.54L122.82,162a23.5,23.5,0,0,1,.72-2.54"/><path class="cls-17" d="M122.82,162l1.47,1.13a21.71,21.71,0,0,0-.49,3.27l-1.47-1.14a21.77,21.77,0,0,1,.49-3.26"/></g></g></g><g class="cls-2"><g class="cls-46"><g class="cls-2"><path class="cls-17" d="M122.82,162l1.47,1.13a21.71,21.71,0,0,0-.49,3.27l-1.47-1.14a21.77,21.77,0,0,1,.49-3.26"/><path class="cls-35" d="M122.33,165.24l1.47,1.14a19.52,19.52,0,0,0,1.81,10.06l-1.47-1.13a19.58,19.58,0,0,1-1.81-10.07"/></g></g></g><g class="cls-2"><g class="cls-47"><g class="cls-2"><path class="cls-24" d="M167.9,116.2l1.47,1.14c-1.63-.27-21.35-3.58-28.36-4.07a96.88,96.88,0,0,0-12.31.29l-1.47-1.13a95.06,95.06,0,0,1,12.31-.29c7,.48,26.73,3.8,28.36,4.06"/></g></g></g><g class="cls-2"><g class="cls-48"><g class="cls-2"><path class="cls-22" d="M167.64,117.66l1.47,1.14c-1.05-.18-21.12-3.57-28.29-4.07a95.14,95.14,0,0,0-12.22.3l-1.47-1.14a95.14,95.14,0,0,1,12.22-.3c7.17.5,27.24,3.89,28.29,4.07"/></g></g></g><g class="cls-2"><g class="cls-49"><g class="cls-2"><path class="cls-22" d="M170.13,118.55l1.47,1.14a4.3,4.3,0,0,0-2.49-.89l-1.47-1.14a4.37,4.37,0,0,1,2.49.89"/></g></g></g><g class="cls-2"><g class="cls-50"><g class="cls-2"><path class="cls-24" d="M171,117.37l1.47,1.13a5.58,5.58,0,0,0-3.14-1.16l-1.47-1.14a5.67,5.67,0,0,1,3.14,1.17"/></g></g></g><g class="cls-2"><g class="cls-51"><g class="cls-2"><path class="cls-52" d="M170.13,118.55l1.47,1.14.22.18-1.47-1.13-.22-.19"/><path class="cls-10" d="M170.35,118.74l1.47,1.13a2.57,2.57,0,0,1,.33.33l-1.47-1.13a3.43,3.43,0,0,0-.33-.33"/><path class="cls-53" d="M170.68,119.07l1.47,1.13a3.51,3.51,0,0,1,.29.36l0,.06L171,119.48l0-.06c-.09-.12-.19-.24-.29-.35"/><path class="cls-54" d="M171,119.48l1.47,1.14a3.16,3.16,0,0,1,.35.59l-1.47-1.13a4.48,4.48,0,0,0-.35-.6"/><path class="cls-13" d="M171.36,120.08l1.47,1.13a4.64,4.64,0,0,1,.45,2.38l-1.47-1.13a4.6,4.6,0,0,0-.45-2.38"/><path class="cls-54" d="M171.81,122.46l1.47,1.13a6.45,6.45,0,0,1-.11.73l-1.47-1.14a6,6,0,0,0,.11-.72"/><path class="cls-53" d="M171.7,123.18l1.47,1.14v.05l-1.47-1.14v0"/></g></g></g><g class="cls-2"><g class="cls-55"><g class="cls-2"><path class="cls-9" d="M171,117.37l1.47,1.13.3.24-1.47-1.13a3.15,3.15,0,0,0-.3-.24"/><path class="cls-10" d="M171.34,117.61l1.47,1.13c.15.14.29.28.43.43L171.77,118a5.81,5.81,0,0,0-.43-.43"/><path class="cls-11" d="M171.77,118l1.47,1.13a6,6,0,0,1,.38.47l0,.07-1.47-1.13,0-.08a5.81,5.81,0,0,0-.38-.46"/><path class="cls-12" d="M172.2,118.58l1.47,1.13a6.8,6.8,0,0,1,.46.77l-1.47-1.13a6.53,6.53,0,0,0-.46-.77"/><path class="cls-13" d="M172.66,119.35l1.47,1.13a6.19,6.19,0,0,1,.58,3.13l-1.47-1.13a6.15,6.15,0,0,0-.58-3.13"/><path class="cls-12" d="M173.24,122.48l1.47,1.13a7.91,7.91,0,0,1-.14.94l-1.47-1.14a7.46,7.46,0,0,0,.14-.93"/><polyline class="cls-11" points="173.1 123.41 174.57 124.55 174.57 124.55 173.09 123.42 173.1 123.41"/></g></g></g><g class="cls-2"><g class="cls-56"><g class="cls-2"><path class="cls-35" d="M122.33,165.24l1.47,1.14a19.52,19.52,0,0,0,1.81,10.06l-1.47-1.13a19.58,19.58,0,0,1-1.81-10.07"/><path class="cls-17" d="M124.14,175.31l1.47,1.13a17.36,17.36,0,0,0,1.4,2.39l-1.47-1.13a17.36,17.36,0,0,1-1.4-2.39"/><path class="cls-34" d="M125.54,177.7l1.47,1.13.17.24q.55.75,1.17,1.44l-1.47-1.14a16.67,16.67,0,0,1-1.17-1.44c-.06-.07-.11-.15-.17-.23"/><path class="cls-33" d="M126.88,179.37l1.47,1.14a16.44,16.44,0,0,0,1.33,1.31l-1.47-1.13a15.06,15.06,0,0,1-1.33-1.32"/><path class="cls-32" d="M128.21,180.69l1.47,1.13q.44.39.9.75l-1.47-1.14c-.31-.23-.61-.48-.9-.74"/></g></g></g><g class="cls-2"><g class="cls-57"><g class="cls-2"><path class="cls-6" d="M129.82,151.51l1.47,1.13c-.23.26-.45.53-.67.79l-1.47-1.13c.22-.27.44-.53.67-.79"/><path class="cls-7" d="M129.15,152.3l1.47,1.13c-.48.57-.92,1.16-1.34,1.76l-1.47-1.13c.42-.6.86-1.19,1.34-1.76"/><path class="cls-8" d="M127.81,154.06l1.47,1.13c-.4.59-.78,1.2-1.13,1.82l-1.47-1.14c.35-.61.73-1.22,1.13-1.81"/><path class="cls-9" d="M126.68,155.87l1.47,1.14c-.36.63-.69,1.26-1,1.91l-1.47-1.13c.29-.65.62-1.29,1-1.92"/><path class="cls-10" d="M125.7,157.79l1.47,1.13c-.31.69-.59,1.39-.83,2.09l-1.47-1.13c.24-.71.52-1.4.83-2.09"/><path class="cls-11" d="M124.87,159.88l1.47,1.13a22.89,22.89,0,0,0-.68,2.38l-1.47-1.13a22.21,22.21,0,0,1,.68-2.38"/><path class="cls-12" d="M124.19,162.26l1.47,1.13a21.11,21.11,0,0,0-.45,3l-1.47-1.13a21.11,21.11,0,0,1,.45-3"/><path class="cls-13" d="M123.74,165.29l1.47,1.13a18,18,0,0,0,1.67,9.28l-1.47-1.13a18,18,0,0,1-1.67-9.28"/><path class="cls-12" d="M125.41,174.57l1.47,1.13a17.34,17.34,0,0,0,1.31,2.23l-1.47-1.14a16.57,16.57,0,0,1-1.31-2.22"/><path class="cls-11" d="M126.72,176.79l1.47,1.14.16.22a14.15,14.15,0,0,0,1.09,1.34L128,178.35a14,14,0,0,1-1.09-1.33l-.16-.23"/><path class="cls-10" d="M128,178.35l1.47,1.14a15.73,15.73,0,0,0,1.23,1.22l-1.47-1.14a14.15,14.15,0,0,1-1.23-1.22"/><path class="cls-9" d="M129.2,179.57l1.47,1.14c.27.24.55.47.83.69L130,180.26c-.28-.22-.56-.45-.83-.69"/></g></g></g><g class="cls-2"><g class="cls-58"><g class="cls-2"><path class="cls-54" d="M171.69,123.23l1.47,1.14c-.17,1-3.28,20.09-4.59,26.76-.33,1.66-.67,3.22-1,4.67l-1.47-1.13c.32-1.45.66-3,1-4.67,1.31-6.67,4.42-25.76,4.59-26.77"/><path class="cls-53" d="M166.11,154.67l1.47,1.13c-.67,2.95-1.31,5.45-1.87,7.47l-1.47-1.13c.56-2,1.2-4.53,1.87-7.47"/></g></g></g><g class="cls-2"><g class="cls-59"><g class="cls-2"><path class="cls-12" d="M173.1,123.42l1.47,1.13c-.18,1.1-3.32,20.31-4.6,26.77-.31,1.57-.64,3.12-1,4.64l-1.47-1.14c.34-1.51.67-3.06,1-4.63,1.28-6.47,4.42-25.67,4.6-26.77"/><path class="cls-11" d="M167.52,154.82,169,156c-.58,2.6-1.21,5.1-1.87,7.49l-1.47-1.14c.66-2.38,1.29-4.89,1.87-7.49"/></g></g></g><path class="cls-60" d="M105.43,147.49c-6-8.32-3.28-21.09,6.17-28.52a22.86,22.86,0,0,1,15.53-5.08,95.14,95.14,0,0,1,12.22-.3c7.17.5,27.24,3.89,28.29,4.07a4.29,4.29,0,0,1,3.33,1.76,4.66,4.66,0,0,1,.72,3.81c-.17,1-3.28,20.1-4.59,26.77-1,5-2,9.13-2.86,12.14A24.1,24.1,0,0,1,155,178.63c-9.46,7.44-22,6.71-28.07-1.61-5.29-7.28-3.83-18,2.94-25.51C121,156.24,110.72,154.77,105.43,147.49Z"/><g class="cls-2"><g class="cls-61"><g class="cls-2"><path class="cls-54" d="M164.24,162.14l1.47,1.13a21.37,21.37,0,0,1-.43,2.74l-1.47-1.13a21.65,21.65,0,0,0,.43-2.74"/><path class="cls-53" d="M163.81,164.88l1.47,1.13a22,22,0,0,1-.67,2.37l-1.48-1.13a23.44,23.44,0,0,0,.68-2.37"/><path class="cls-10" d="M163.13,167.25l1.48,1.13a22.23,22.23,0,0,1-.84,2.09l-1.47-1.13a21.61,21.61,0,0,0,.83-2.09"/><path class="cls-52" d="M162.3,169.34l1.47,1.13c-.29.65-.62,1.29-1,1.92l-1.47-1.13c.36-.63.69-1.27,1-1.92"/><path class="cls-62" d="M161.32,171.26l1.47,1.13c-.35.62-.73,1.22-1.13,1.82l-1.47-1.14c.4-.59.78-1.2,1.13-1.81"/><path class="cls-7" d="M160.19,173.07l1.47,1.14c-.42.6-.86,1.18-1.33,1.75l-1.47-1.13c.47-.57.91-1.16,1.33-1.76"/><path class="cls-6" d="M158.86,174.83l1.47,1.13c-.5.6-1,1.18-1.58,1.74l-1.47-1.13c.56-.56,1.08-1.14,1.58-1.74"/><path class="cls-63" d="M157.28,176.57l1.47,1.13a26.19,26.19,0,0,1-2,1.79l-1.47-1.14a24.1,24.1,0,0,0,2-1.78"/><path class="cls-64" d="M155.3,178.35l1.47,1.14-.35.28a26,26,0,0,1-2.34,1.64l-1.47-1.14a24.1,24.1,0,0,0,2.34-1.64c.12-.09.24-.18.35-.28"/><path class="cls-44" d="M152.61,180.27l1.47,1.14c-7.61,4.7-16.59,4.61-22.58,0L130,180.26c6,4.63,15,4.71,22.58,0"/></g></g></g><g class="cls-2"><g class="cls-65"><g class="cls-2"><path class="cls-12" d="M165.65,162.31l1.47,1.14a22.68,22.68,0,0,1-.45,2.84l-1.47-1.13a22.83,22.83,0,0,0,.45-2.85"/><path class="cls-11" d="M165.2,165.16l1.47,1.13a24.18,24.18,0,0,1-.72,2.52l-1.47-1.13a24.9,24.9,0,0,0,.72-2.52"/><path class="cls-10" d="M164.48,167.68l1.47,1.13c-.26.75-.55,1.48-.88,2.2l-1.47-1.13c.33-.72.62-1.46.88-2.2"/><path class="cls-9" d="M163.6,169.88l1.47,1.13a22.57,22.57,0,0,1-1,2l-1.47-1.13c.38-.66.72-1.34,1-2"/><path class="cls-8" d="M162.57,171.9,164,173q-.56,1-1.2,1.92l-1.47-1.13q.65-.94,1.2-1.92"/><path class="cls-7" d="M161.37,173.82l1.47,1.13c-.44.64-.91,1.26-1.41,1.87L160,175.68q.75-.9,1.41-1.86"/><path class="cls-6" d="M160,175.68l1.47,1.14c-.53.64-1.1,1.26-1.69,1.86l-1.47-1.14a24.85,24.85,0,0,0,1.69-1.86"/><path class="cls-5" d="M158.27,177.54l1.47,1.14a27.47,27.47,0,0,1-2.12,1.91l-1.47-1.13c.74-.61,1.45-1.25,2.12-1.92"/><path class="cls-4" d="M156.15,179.46l1.47,1.13-.38.31a27,27,0,0,1-2.48,1.73l-1.47-1.13a27.09,27.09,0,0,0,2.48-1.74l.38-.3"/><path class="cls-22" d="M153.29,181.5l1.47,1.13c-8.12,5-17.75,4.9-24.18-.06l-1.47-1.14c6.43,5,16.06,5.08,24.18.07"/></g></g></g><polygon class="cls-12" points="3.7 155.19 5.17 156.32 93.66 278.11 92.19 276.98 3.7 155.19"/><g class="cls-2"><g class="cls-66"><g class="cls-2"><path class="cls-11" d="M92.19,277l1.47,1.13c.09.13.19.24.29.36l-1.47-1.14c-.1-.11-.2-.23-.29-.35"/><path class="cls-10" d="M92.48,277.33,94,278.47l.32.32-1.47-1.14a3.22,3.22,0,0,1-.32-.32"/><path class="cls-9" d="M92.8,277.65l1.47,1.14.22.18L93,277.83a1.74,1.74,0,0,1-.22-.18"/></g></g></g><polygon class="cls-67" points="268.59 116.11 270.06 117.25 243.15 125.43 241.68 124.3 268.59 116.11"/><polygon class="cls-12" points="244.08 125.06 245.55 126.19 248.73 130.57 247.26 129.44 244.08 125.06"/><polygon class="cls-17" points="241.68 124.3 243.15 125.43 248.1 132.25 246.63 131.12 241.68 124.3"/><polygon class="cls-68" points="251.48 128.19 252.95 129.33 248.73 130.57 247.26 129.44 251.48 128.19"/><polygon class="cls-20" points="250.85 129.87 252.32 131.01 248.1 132.25 246.63 131.12 250.85 129.87"/><polygon class="cls-17" points="250.85 129.87 252.32 131.01 255.68 135.63 254.21 134.5 250.85 129.87"/><polygon class="cls-20" points="262.74 124.16 264.21 125.29 257.31 127.65 255.84 126.52 262.74 124.16"/><polygon class="cls-69" points="254.21 134.5 255.68 135.63 253.37 139.5 251.9 138.37 254.21 134.5"/><polygon class="cls-20" points="267.98 117.79 269.44 118.93 245.55 126.19 244.08 125.06 267.98 117.79"/><polygon class="cls-16" points="255.84 126.52 257.31 127.65 260.14 131.56 258.67 130.42 255.84 126.52"/><polygon class="cls-70" points="262.74 124.16 264.21 125.29 260.14 131.56 258.67 130.42 262.74 124.16"/><polygon class="cls-12" points="251.48 128.19 252.95 129.33 257.4 135.46 255.93 134.32 251.48 128.19"/><polygon class="cls-15" points="255.93 134.32 257.4 135.46 255.09 139.33 253.63 138.2 255.93 134.32"/><polygon class="cls-16" points="267.98 117.79 269.44 118.93 271.53 121.8 270.06 120.66 267.98 117.79"/><polygon class="cls-12" points="268.59 116.11 270.06 117.25 273.25 121.64 271.78 120.51 268.59 116.11"/><polygon class="cls-12" points="253.63 138.2 255.09 139.33 258.28 143.72 256.81 142.58 253.63 138.2"/><polygon class="cls-71" points="270.06 120.66 271.53 121.8 258.28 143.72 256.81 142.58 270.06 120.66"/><path class="cls-60" d="M247.26,129.44l-3.18-4.38,23.9-7.27,2.08,2.87-13.25,21.92-3.19-4.38,2.31-3.87-4.45-6.14Zm15.48-5.28-6.9,2.36,2.83,3.9,4.07-6.26"/><polygon class="cls-17" points="251.9 138.37 253.37 139.5 258.33 146.33 256.86 145.19 251.9 138.37"/><polygon class="cls-15" points="271.78 120.51 273.25 121.64 258.33 146.33 256.86 145.19 271.78 120.51"/><path class="cls-72" d="M3.7,155.19a4.88,4.88,0,0,1,1.13-6.61L188.87,4a4.46,4.46,0,0,1,6.43.67l88.48,121.79a4.88,4.88,0,0,1-1.13,6.62l-184,144.6a4.46,4.46,0,0,1-6.43-.68Zm123.53-42.76a24.22,24.22,0,0,0-16.45,5.41c-10.09,7.92-13,21.64-6.52,30.57,4.68,6.45,13.18,8.78,21.47,6.32-4.54,7.62-4.7,16.76,0,23.2,6.49,8.94,20,9.76,30.06,1.83a25.59,25.59,0,0,0,9.88-17.45c1-3.77,2-7.85,2.85-12.12,1.28-6.47,4.42-25.67,4.6-26.77a6.13,6.13,0,0,0-.95-4.92,5.65,5.65,0,0,0-4.25-2.3c-1.63-.26-21.35-3.58-28.36-4.06a95.06,95.06,0,0,0-12.31.29M37.64,141.57l-5-6.82L17.76,159.44,21,163.83l26.91-8.18-5-6.82-4.22,1.25-3.36-4.63,2.31-3.88m231-25.46-26.91,8.19,4.95,6.82,4.22-1.25,3.36,4.62-2.31,3.88,5,6.82,14.92-24.68-3.19-4.4"/><polygon class="cls-72" points="26.81 155.78 30.87 149.52 33.71 153.43 26.81 155.78"/><g class="cls-2"><g class="cls-73"><g class="cls-2"><path class="cls-32" d="M194.47,3.8l1.47,1.13.22.18L194.69,4a1.74,1.74,0,0,0-.22-.18"/><path class="cls-33" d="M194.69,4l1.47,1.13c.11.1.22.21.32.32L195,4.3a3.22,3.22,0,0,0-.32-.32"/><path class="cls-34" d="M195,4.3l1.47,1.13c.1.11.2.23.29.35L195.3,4.65c-.09-.12-.19-.24-.29-.35"/></g></g></g><path class="cls-74" d="M104.26,148.41c-6.49-8.93-3.57-22.65,6.52-30.57a24.22,24.22,0,0,1,16.45-5.41,95.06,95.06,0,0,1,12.31-.29c7,.48,26.73,3.8,28.36,4.06a5.65,5.65,0,0,1,4.25,2.3,6.13,6.13,0,0,1,.95,4.92c-.18,1.1-3.32,20.3-4.6,26.77-.84,4.27-1.81,8.35-2.85,12.12a25.59,25.59,0,0,1-9.88,17.45c-10.08,7.93-23.57,7.11-30.06-1.83-4.68-6.44-4.52-15.58,0-23.2C117.44,157.19,108.94,154.86,104.26,148.41Zm22.87-34.52A22.86,22.86,0,0,0,111.6,119c-9.45,7.43-12.21,20.2-6.17,28.52,5.29,7.28,15.58,8.75,24.39,4-6.77,7.53-8.23,18.23-2.94,25.51,6.05,8.32,18.61,9,28.07,1.61a24.1,24.1,0,0,0,9.29-16.49c.83-3,1.86-7.11,2.86-12.14,1.31-6.67,4.42-25.76,4.59-26.77a4.66,4.66,0,0,0-.72-3.81,4.29,4.29,0,0,0-3.33-1.76c-1-.18-21.12-3.57-28.29-4.07a95.14,95.14,0,0,0-12.22.3"/><g class="cls-2"><g class="cls-75"><g class="cls-2"><path class="cls-25" d="M98.62,277.66l1.47,1.14a5.11,5.11,0,0,1-.48.33L98.14,278a5.11,5.11,0,0,0,.48-.33"/><path class="cls-24" d="M98.14,278l1.47,1.14a4.49,4.49,0,0,1-5.12-.16L93,277.83a4.49,4.49,0,0,0,5.12.16"/></g></g></g><g class="cls-2"><g class="cls-76"><g class="cls-2"><path class="cls-4" d="M100.26,279.93l1.47,1.13c-.25.2-.5.37-.76.54l-1.47-1.14c.26-.16.51-.34.76-.53"/><path class="cls-22" d="M99.5,280.46,101,281.6a7.32,7.32,0,0,1-8.32-.26l-1.47-1.13a7.32,7.32,0,0,0,8.32.25"/></g></g></g><path class="cls-74" d="M250.85,129.87l-4.22,1.25-4.95-6.82,26.91-8.19,3.19,4.4-14.92,24.68-5-6.82,2.31-3.88Zm-6.77-4.81,3.18,4.38,4.22-1.25,4.45,6.14-2.31,3.87,3.19,4.38,13.25-21.92L268,117.79l-23.9,7.27"/><polygon class="cls-72" points="255.84 126.52 262.74 124.16 258.67 130.42 255.84 126.52"/><polygon class="cls-17" points="195.3 4.65 196.77 5.79 285.25 127.58 283.78 126.44 195.3 4.65"/><polygon class="cls-77" points="282.65 133.06 284.12 134.2 100.09 278.8 98.62 277.66 282.65 133.06"/><g class="cls-2"><g class="cls-78"><g class="cls-2"><path class="cls-34" d="M283.78,126.44l1.47,1.14.05.06-1.47-1.14-.05-.06"/><path class="cls-17" d="M283.83,126.5l1.47,1.14a4.19,4.19,0,0,1,.34.58l-1.47-1.14a4.88,4.88,0,0,0-.34-.58"/><path class="cls-35" d="M284.17,127.08l1.47,1.14a4.43,4.43,0,0,1,.43,2.35l-1.47-1.14a4.45,4.45,0,0,0-.43-2.35"/><path class="cls-17" d="M284.6,129.43l1.47,1.14a4.33,4.33,0,0,1-.1.71l-1.47-1.13a4.45,4.45,0,0,0,.1-.72"/><path class="cls-34" d="M284.5,130.15l1.47,1.13a5.44,5.44,0,0,1-.15.54l-1.47-1.14a4.61,4.61,0,0,0,.15-.53"/><path class="cls-33" d="M284.35,130.68l1.47,1.14c-.06.15-.12.31-.19.46l-1.47-1.14c.07-.15.13-.3.19-.46"/><path class="cls-32" d="M284.16,131.14l1.47,1.14-.2.41L284,131.55a3.17,3.17,0,0,0,.21-.41"/><path class="cls-31" d="M284,131.55l1.48,1.14-.24.38-1.47-1.14c.08-.12.16-.25.23-.38"/><path class="cls-30" d="M283.72,131.93l1.47,1.14-.28.36-1.47-1.14a3.44,3.44,0,0,0,.28-.36"/><path class="cls-29" d="M283.44,132.29l1.47,1.14c-.1.12-.21.24-.32.35l-1.47-1.13a3.73,3.73,0,0,0,.32-.36"/><path class="cls-28" d="M283.12,132.65l1.47,1.13a4.48,4.48,0,0,1-.4.36L282.72,133l.4-.36"/><path class="cls-25" d="M282.72,133l1.47,1.13-.07.06-1.47-1.14a.18.18,0,0,0,.07-.05"/></g></g></g><path class="cls-74" d="M1.35,157a7.94,7.94,0,0,1,1.83-10.73l184-144.6a7.23,7.23,0,0,1,10.42,1.1L286.13,124.6a7.92,7.92,0,0,1-1.83,10.73l-184,144.6a7.24,7.24,0,0,1-10.42-1.1ZM188.87,4l-184,144.6a4.88,4.88,0,0,0-1.13,6.61L92.19,277a4.46,4.46,0,0,0,6.43.68l184-144.6a4.88,4.88,0,0,0,1.13-6.62L195.3,4.65A4.46,4.46,0,0,0,188.87,4"/><path class="cls-60" d="M19.49,159.28l13.25-21.92,3.18,4.38-2.31,3.87,4.46,6.14,4.21-1.25,3.19,4.38-23.9,7.27Zm14.22-5.86-2.84-3.9-4.06,6.26,6.9-2.36"/><path class="cls-74" d="M21,163.83l-3.19-4.39,14.92-24.69,5,6.82-2.31,3.88,3.36,4.63,4.22-1.25,5,6.82Zm15-22.09-3.18-4.38L19.49,159.28l2.08,2.87,23.9-7.27-3.19-4.38-4.21,1.25-4.46-6.14,2.31-3.87"/><g class="cls-2"><g class="cls-79"><g class="cls-2"><path class="cls-9" d="M196.3,1.42l1.47,1.14.36.29-1.48-1.13-.35-.3"/><path class="cls-10" d="M196.65,1.72l1.48,1.13c.18.16.35.34.52.52l-1.47-1.13a5.19,5.19,0,0,0-.53-.52"/><path class="cls-11" d="M197.18,2.24l1.47,1.13a6.36,6.36,0,0,1,.46.57l-1.47-1.13a6.36,6.36,0,0,0-.46-.57"/></g></g></g><polygon class="cls-12" points="197.64 2.81 199.11 3.94 287.6 125.73 286.13 124.6 197.64 2.81"/><polygon class="cls-6" points="284.3 135.33 285.77 136.46 101.73 281.06 100.26 279.93 284.3 135.33"/><g class="cls-2"><g class="cls-80"><g class="cls-2"><path class="cls-11" d="M286.13,124.6l1.47,1.13a.86.86,0,0,0,.07.1l-1.47-1.13a.86.86,0,0,0-.07-.1"/><path class="cls-12" d="M286.2,124.7l1.47,1.13a7,7,0,0,1,.56,1l-1.48-1.14a5.92,5.92,0,0,0-.55-.94"/><path class="cls-13" d="M286.75,125.64l1.48,1.14a7.42,7.42,0,0,1,.7,3.8l-1.47-1.13a7.38,7.38,0,0,0-.71-3.81"/><path class="cls-12" d="M287.46,129.45l1.47,1.13a8.86,8.86,0,0,1-.17,1.15l-1.47-1.13a9.12,9.12,0,0,0,.17-1.15"/><path class="cls-11" d="M287.29,130.6l1.47,1.13a8,8,0,0,1-.25.87L287,131.47c.1-.29.18-.58.25-.87"/><path class="cls-10" d="M287,131.47l1.47,1.13a6.67,6.67,0,0,1-.29.74l-1.47-1.13a6.67,6.67,0,0,0,.29-.74"/><path class="cls-9" d="M286.75,132.21l1.47,1.13c-.1.23-.22.45-.34.67l-1.47-1.14c.12-.21.24-.44.34-.66"/><path class="cls-8" d="M286.41,132.87l1.47,1.14c-.12.21-.25.41-.39.61L286,133.49c.14-.2.27-.41.39-.62"/><path class="cls-7" d="M286,133.49l1.47,1.13a5,5,0,0,1-.44.59l-1.47-1.13a6,6,0,0,0,.44-.59"/><path class="cls-6" d="M285.58,134.08l1.47,1.13c-.16.2-.34.39-.52.58l-1.47-1.14a7,7,0,0,0,.52-.57"/><path class="cls-5" d="M285.06,134.65l1.47,1.14c-.21.2-.42.4-.65.58l-1.47-1.13c.23-.19.44-.38.65-.59"/><path class="cls-4" d="M284.41,135.24l1.47,1.13-.11.09-1.47-1.13.11-.09"/></g></g></g></g></g></g></svg>