<svg xmlns="http://www.w3.org/2000/svg" xmlns:xlink="http://www.w3.org/1999/xlink" viewBox="0 0 284.42 280.35"><defs><style>.cls-1{fill:none;}.cls-2{isolation:isolate;}.cls-3{clip-path:url(#clip-path);}.cls-4{fill:#3e2866;}.cls-5{fill:#402a69;}.cls-6{fill:#422c6c;}.cls-7{fill:#442d6e;}.cls-8{fill:#452f71;}.cls-9{fill:#473173;}.cls-10{fill:#493276;}.cls-11{fill:#4b3478;}.cls-12{clip-path:url(#clip-path-2);}.cls-13{clip-path:url(#clip-path-3);}.cls-14{fill:#4c367b;}.cls-15{clip-path:url(#clip-path-4);}.cls-16{clip-path:url(#clip-path-5);}.cls-17{fill:#4e377d;}.cls-18{clip-path:url(#clip-path-6);}.cls-19{fill:#959799;}.cls-20{fill:#999b9d;}.cls-21{fill:#9d9ea1;}.cls-22{fill:#a1a2a4;}.cls-23{fill:#a5a6a8;}.cls-24{fill:#a8aaac;}.cls-25{fill:#acaeb0;}.cls-26{fill:#b0b2b4;}.cls-27{fill:#b4b6b7;}.cls-28{fill:#b8babb;}.cls-29{clip-path:url(#clip-path-7);}.cls-30{fill:#9a9b9d;}.cls-31{clip-path:url(#clip-path-8);}.cls-32{fill:#3b2561;}.cls-33{fill:#3c2664;}.cls-34{clip-path:url(#clip-path-9);}.cls-35{clip-path:url(#clip-path-10);}.cls-36{clip-path:url(#clip-path-11);}.cls-37{clip-path:url(#clip-path-12);}.cls-38{clip-path:url(#clip-path-13);}.cls-39{fill:#8e8f92;}.cls-40{fill:#919395;}.cls-41{clip-path:url(#clip-path-14);}.cls-42{clip-path:url(#clip-path-15);}.cls-43{clip-path:url(#clip-path-16);}.cls-44{clip-path:url(#clip-path-17);}.cls-45{clip-path:url(#clip-path-18);}.cls-46{clip-path:url(#clip-path-19);}.cls-47{clip-path:url(#clip-path-20);}.cls-48{clip-path:url(#clip-path-21);}.cls-49{clip-path:url(#clip-path-22);}.cls-50{clip-path:url(#clip-path-23);}.cls-51{clip-path:url(#clip-path-24);}.cls-52{clip-path:url(#clip-path-25);}.cls-53{clip-path:url(#clip-path-26);}.cls-54{clip-path:url(#clip-path-27);}.cls-55{fill:#b2b3b5;}.cls-56{clip-path:url(#clip-path-28);}.cls-57{clip-path:url(#clip-path-29);}.cls-58{clip-path:url(#clip-path-30);}.cls-59{clip-path:url(#clip-path-31);}.cls-60{clip-path:url(#clip-path-32);}.cls-61{clip-path:url(#clip-path-33);}.cls-62{clip-path:url(#clip-path-34);}.cls-63{clip-path:url(#clip-path-35);}.cls-64{clip-path:url(#clip-path-36);}.cls-65{clip-path:url(#clip-path-37);}.cls-66{clip-path:url(#clip-path-38);}.cls-67{clip-path:url(#clip-path-39);}.cls-68{clip-path:url(#clip-path-40);}.cls-69{clip-path:url(#clip-path-41);}.cls-70{clip-path:url(#clip-path-42);}.cls-71{clip-path:url(#clip-path-43);}.cls-72{clip-path:url(#clip-path-44);}.cls-73{fill:#543d86;}.cls-74{fill:#4b3479;}.cls-75{clip-path:url(#clip-path-45);}.cls-76{clip-path:url(#clip-path-46);}.cls-77{clip-path:url(#clip-path-47);}.cls-78{fill:#c7c8c9;}.cls-79{clip-path:url(#clip-path-48);}.cls-80{clip-path:url(#clip-path-49);}.cls-81{clip-path:url(#clip-path-50);}</style><clipPath id="clip-path"><path class="cls-1" d="M16.46,153.45l-1-.72a7.91,7.91,0,0,1,2.67-4l1.56,1.16a7.83,7.83,0,0,0-2.67,4Z"/></clipPath><clipPath id="clip-path-2"><path class="cls-1" d="M17,153.89c0,.09-.05.18-.07.27L15.41,153a2.68,2.68,0,0,1,.07-.27Z"/></clipPath><clipPath id="clip-path-3"><path class="cls-1" d="M16.19,155l-1-.72a7.39,7.39,0,0,1,.19-1.31L17,154.16a7.28,7.28,0,0,0-.19,1.3Z"/></clipPath><clipPath id="clip-path-4"><path class="cls-1" d="M16.78,155.46a1.48,1.48,0,0,0,0,.21l-.88-.65-.11-.08-.1-.07-.2-.15-.09-.07a2.2,2.2,0,0,0-.18-.14,1.41,1.41,0,0,1,0-.2Z"/></clipPath><clipPath id="clip-path-5"><path class="cls-1" d="M16.77,155.67A6.67,6.67,0,0,0,18,159.88l-1.56-1.15a6.7,6.7,0,0,1-1.27-4.22Z"/></clipPath><clipPath id="clip-path-6"><path class="cls-1" d="M19.25,150.18l1.56,1.15a5.43,5.43,0,0,0-1.22,7.31L18,157.48A5.4,5.4,0,0,1,19.25,150.18Z"/></clipPath><clipPath id="clip-path-7"><path class="cls-1" d="M192.23,1.07l1.56,1.16a5,5,0,0,1,1.14,1.15l-1.56-1.16A5.65,5.65,0,0,0,192.23,1.07Z"/></clipPath><clipPath id="clip-path-8"><path class="cls-1" d="M187.69,17a7.37,7.37,0,0,0-4.24,1.64l-1.56-1.15a7.35,7.35,0,0,1,4.24-1.64Z"/></clipPath><clipPath id="clip-path-9"><path class="cls-1" d="M187.89,17h-.2l-1.56-1.15h.2Z"/></clipPath><clipPath id="clip-path-10"><path class="cls-1" d="M187.3,16.54l-1-.73a6.63,6.63,0,0,1,1.26.1l1.56,1.15a6.62,6.62,0,0,0-1.26-.09Z"/></clipPath><clipPath id="clip-path-11"><path class="cls-1" d="M189.41,17.11l-.26-.05-1.56-1.15.26.05Z"/></clipPath><clipPath id="clip-path-12"><path class="cls-1" d="M188.83,16.68l-1-.72a6.1,6.1,0,0,1,2.42,1.09l1.57,1.15a6.35,6.35,0,0,0-2.43-1.09Z"/></clipPath><clipPath id="clip-path-13"><path class="cls-1" d="M189.09,18.65l1.56,1.16a5,5,0,0,0-6.1.3L183,19A5,5,0,0,1,189.09,18.65Z"/></clipPath><clipPath id="clip-path-14"><path class="cls-1" d="M111.08,119.43c-6.4,5.12-9.69,12.7-9.22,19.61l-1.56-1.15c-.47-6.92,2.82-14.49,9.22-19.62a23.88,23.88,0,0,1,10.28-4.87l1.56,1.15A23.9,23.9,0,0,0,111.08,119.43Z"/></clipPath><clipPath id="clip-path-15"><path class="cls-1" d="M120.88,114.2l-1.08-.8.15,0,1.56,1.16-.15,0Z"/></clipPath><clipPath id="clip-path-16"><path class="cls-1" d="M189.09,18.65l1.56,1.16a4.65,4.65,0,0,1,1,1l-1.56-1.16A4.65,4.65,0,0,0,189.09,18.65Z"/></clipPath><clipPath id="clip-path-17"><path class="cls-1" d="M126.51,114.19a20.68,20.68,0,0,0-5,.34L120,113.37a20.17,20.17,0,0,1,5-.33Z"/></clipPath><clipPath id="clip-path-18"><path class="cls-1" d="M120.8,113.45l1.56,1.16c-4-.12-10.64,6.11-8.31,9.28l-1.56-1.16C110.16,119.56,116.8,113.33,120.8,113.45Z"/></clipPath><clipPath id="clip-path-19"><path class="cls-1" d="M190.27,17.05l1.56,1.15a6,6,0,0,1,1.33,1.34l-1.56-1.16A6.21,6.21,0,0,0,190.27,17.05Z"/></clipPath><clipPath id="clip-path-20"><path class="cls-1" d="M126.51,114.19c-2.44.21-4.06.4-4.15.42l-1.56-1.16c.09,0,1.71-.2,4.15-.41Z"/></clipPath><clipPath id="clip-path-21"><path class="cls-1" d="M101.86,139A16.92,16.92,0,0,0,105,148l-1.56-1.16a16.89,16.89,0,0,1-3.18-8.91Z"/></clipPath><clipPath id="clip-path-22"><path class="cls-1" d="M106,149.38a23,23,0,0,0,2.07,1.74l-1.31-1a15.52,15.52,0,0,1-3.32-3.35L105,148a15.7,15.7,0,0,0,3.32,3.34A23,23,0,0,1,106,149.38Z"/></clipPath><clipPath id="clip-path-23"><path class="cls-1" d="M126.51,114.19a.47.47,0,0,1-.09-.06L125,113a93.65,93.65,0,0,1,12.13-.42l1.56,1.16A93.66,93.66,0,0,0,126.51,114.19Z"/></clipPath><clipPath id="clip-path-24"><path class="cls-1" d="M138.65,113.78h0l-1.56-1.16h0Z"/></clipPath><clipPath id="clip-path-25"><path class="cls-1" d="M129.31,151.72c-7.17,3.94-15.32,3.74-20.94-.41l-1.56-1.16c5.62,4.16,13.77,4.35,20.94.42Z"/></clipPath><clipPath id="clip-path-26"><path class="cls-1" d="M129.31,151.72a24.86,24.86,0,0,0-4,6.17l-1.56-1.16a24.63,24.63,0,0,1,4-6.16Z"/></clipPath><clipPath id="clip-path-27"><path class="cls-1" d="M125.29,157.89h0l-1.57-1.16h0Z"/></clipPath><clipPath id="clip-path-28"><path class="cls-1" d="M132.32,148.83a25.83,25.83,0,0,0-3,2.89l-1.56-1.15a25.1,25.1,0,0,1,3-2.9Z"/></clipPath><clipPath id="clip-path-29"><path class="cls-1" d="M125.29,157.9a22.09,22.09,0,0,0-1.9,6.7l-1.56-1.15a22.5,22.5,0,0,1,1.89-6.71Z"/></clipPath><clipPath id="clip-path-30"><path class="cls-1" d="M123.39,164.6h0l-1.56-1.16h0Z"/></clipPath><clipPath id="clip-path-31"><path class="cls-1" d="M166.78,117.55c-1.05-.17-21-3.36-28.13-3.77l-1.56-1.16c7.12.42,27.08,3.61,28.13,3.77Z"/></clipPath><clipPath id="clip-path-32"><path class="cls-1" d="M169.21,118.37a4.32,4.32,0,0,0-2.43-.82l-1.56-1.16a4.22,4.22,0,0,1,2.42.83Z"/></clipPath><clipPath id="clip-path-33"><path class="cls-1" d="M123.74,171.25a16.31,16.31,0,0,0,2.73,6l-1.57-1.16a17.57,17.57,0,0,1-3.07-12.6l1.56,1.16a18.91,18.91,0,0,0,.35,6.64h0s0,0,0,0l-.28-.2-1.23-.91,1.18.88.2.14.09.07S123.72,171.22,123.74,171.25Z"/></clipPath><clipPath id="clip-path-34"><path class="cls-1" d="M167.64,117.22l1.56,1.15a4,4,0,0,1,.9.9,4.66,4.66,0,0,1,.73,3.8l-1.57-1.16a4.6,4.6,0,0,0-.72-3.79A4,4,0,0,0,167.64,117.22Z"/></clipPath><clipPath id="clip-path-35"><path class="cls-1" d="M126.47,177.21a15.75,15.75,0,0,0,3.32,3.35l-1.56-1.16a15.25,15.25,0,0,1-3.32-3.34h0l1.57,1.16Z"/></clipPath><clipPath id="clip-path-36"><path class="cls-1" d="M139.41,183.79a17,17,0,0,1-9.61-3.23l-1.57-1.15a17.15,17.15,0,0,0,9.61,3.23Z"/></clipPath><clipPath id="clip-path-37"><path class="cls-1" d="M151.72,175.16,150.16,174c2.7,2,9.15-3.4,10-7.22l1.56,1.15C160.87,171.76,154.42,177.15,151.72,175.16Z"/></clipPath><clipPath id="clip-path-38"><path class="cls-1" d="M151.72,175.16,150.16,174a2.38,2.38,0,0,1-.47-.48l1.56,1.16A2.38,2.38,0,0,0,151.72,175.16Z"/></clipPath><clipPath id="clip-path-39"><path class="cls-1" d="M169.26,121.91l1.57,1.16c-.16,1-3.19,20.09-4.48,26.76-1,5-2,9.11-2.79,12.12-1.06,3.89-1.77,5.88-1.81,6l-1.56-1.15c0-.11.75-2.1,1.81-6,.82-3,1.82-7.1,2.79-12.12C166.08,142,169.1,122.92,169.26,121.91Z"/></clipPath><clipPath id="clip-path-40"><path class="cls-1" d="M163.56,162a22,22,0,0,1-1.4,6l-1.56-1.16a21.85,21.85,0,0,0,1.4-6Z"/></clipPath><clipPath id="clip-path-41"><path class="cls-1" d="M162,168.28l-1.56-1.16.12-.31,1.56,1.16Z"/></clipPath><clipPath id="clip-path-42"><path class="cls-1" d="M154.38,178.54a22.91,22.91,0,0,1-15,5.25l-1.57-1.15a22.89,22.89,0,0,0,15-5.26,25.21,25.21,0,0,0,7.67-10.26l1.56,1.16A25.34,25.34,0,0,1,154.38,178.54Z"/></clipPath><clipPath id="clip-path-43"><path class="cls-1" d="M95.34,261.7l-1.56-1.15a4.69,4.69,0,0,1-1-1l1.56,1.15A4.46,4.46,0,0,0,95.34,261.7Z"/></clipPath><clipPath id="clip-path-44"><path class="cls-1" d="M101.43,261.4a5,5,0,0,1-6.09.3l-1.56-1.15a5,5,0,0,0,6.09-.3C100.34,260.59,101,261.05,101.43,261.4Z"/></clipPath><clipPath id="clip-path-45"><path class="cls-1" d="M92.82,262a6.26,6.26,0,0,0,1.33,1.34l-1.56-1.15a6.26,6.26,0,0,1-1.33-1.34A14.94,14.94,0,0,1,92.82,262Z"/></clipPath><clipPath id="clip-path-46"><path class="cls-1" d="M94.15,263.31l-1.56-1.15a6.87,6.87,0,0,0,8.38-.41l1.56,1.15A6.86,6.86,0,0,1,94.15,263.31Z"/></clipPath><clipPath id="clip-path-47"><path class="cls-1" d="M265.17,130.18c-.51-.39-1-.78-1.56-1.16a5.39,5.39,0,0,0,1.22-7.3l1.56,1.15A5.41,5.41,0,0,1,265.17,130.18Z"/></clipPath><clipPath id="clip-path-48"><path class="cls-1" d="M266.38,120.47l1.56,1.16a7.44,7.44,0,0,1-1.67,10.05l-1.56-1.16A7.43,7.43,0,0,0,266.38,120.47Z"/></clipPath><clipPath id="clip-path-49"><path class="cls-1" d="M92.19,279.29l-1.56-1.16a5.94,5.94,0,0,0,7.24-.34l1.56,1.15A6,6,0,0,1,92.19,279.29Z"/></clipPath><clipPath id="clip-path-50"><path class="cls-1" d="M281.77,122.9l1.56,1.15a6.45,6.45,0,0,1-1.44,8.67l-1.56-1.16A6.43,6.43,0,0,0,281.77,122.9Z"/></clipPath></defs><g id="Layer_2" data-name="Layer 2"><g id="Layer_1-2" data-name="Layer 1"><g class="cls-2"><g class="cls-2"><g class="cls-3"><g class="cls-2"><path class="cls-4" d="M18.15,148.68l1.56,1.16c-.19.16-.38.32-.56.49l-1.56-1.15.56-.5"/><path class="cls-5" d="M17.59,149.18l1.56,1.15c-.17.17-.33.34-.48.52l-1.56-1.16a5.79,5.79,0,0,1,.48-.51"/><path class="cls-6" d="M17.11,149.69l1.56,1.16c-.15.17-.29.34-.42.52l-1.56-1.15c.13-.18.27-.36.42-.53"/><path class="cls-7" d="M16.69,150.22l1.56,1.15a6.49,6.49,0,0,0-.36.55l-1.56-1.16a6.33,6.33,0,0,1,.36-.54"/><path class="cls-8" d="M16.33,150.76l1.56,1.16c-.11.19-.22.38-.32.58L16,151.34a6.55,6.55,0,0,1,.32-.58"/><path class="cls-9" d="M16,151.34l1.56,1.16c-.1.21-.2.42-.28.64L15.73,152c.08-.22.18-.43.28-.64"/><path class="cls-10" d="M15.73,152l1.56,1.16c-.09.24-.18.48-.25.73l-1.56-1.15a6.44,6.44,0,0,1,.25-.74"/><path class="cls-11" d="M15.48,152.72,17,153.87c-.08.3-.14.6-.19.9l-1.56-1.15a6.53,6.53,0,0,1,.19-.9"/></g></g></g><g class="cls-2"><g class="cls-12"><g class="cls-2"><path class="cls-11" d="M15.48,152.72,17,153.87c-.08.3-.14.6-.19.9l-1.56-1.15a6.53,6.53,0,0,1,.19-.9"/></g></g></g><g class="cls-2"><g class="cls-13"><g class="cls-2"><path class="cls-11" d="M15.48,152.72,17,153.87c-.08.3-.14.6-.19.9l-1.56-1.15a6.53,6.53,0,0,1,.19-.9"/><path class="cls-14" d="M15.29,153.62l1.56,1.15a8.21,8.21,0,0,0-.08,1.48l-1.56-1.15a7.35,7.35,0,0,1,.08-1.48"/></g></g></g><g class="cls-2"><g class="cls-15"><g class="cls-2"><path class="cls-14" d="M15.29,153.62l1.56,1.15a8.21,8.21,0,0,0-.08,1.48l-1.56-1.15a7.35,7.35,0,0,1,.08-1.48"/></g></g></g><g class="cls-2"><g class="cls-16"><g class="cls-2"><path class="cls-14" d="M15.29,153.62l1.56,1.15a8.21,8.21,0,0,0-.08,1.48l-1.56-1.15a7.35,7.35,0,0,1,.08-1.48"/><path class="cls-17" d="M15.21,155.1l1.56,1.15a7.39,7.39,0,0,0,.29,1.68l-1.56-1.16a7.21,7.21,0,0,1-.29-1.67"/><path class="cls-14" d="M15.5,156.77l1.56,1.16a6.86,6.86,0,0,0,.55,1.28l-1.56-1.15a6.68,6.68,0,0,1-.55-1.29"/><path class="cls-11" d="M16.05,158.06l1.56,1.15a5.87,5.87,0,0,0,.43.67l-1.56-1.15a6.9,6.9,0,0,1-.43-.67"/></g></g></g><g class="cls-2"><g class="cls-18"><g class="cls-2"><path class="cls-19" d="M19.25,150.18l1.56,1.15-.41.36-1.56-1.15a3.52,3.52,0,0,1,.41-.36"/><path class="cls-20" d="M18.84,150.54l1.56,1.15c-.12.12-.24.25-.35.38l-1.56-1.16c.11-.13.23-.25.35-.37"/><path class="cls-21" d="M18.49,150.91l1.56,1.16a3.57,3.57,0,0,0-.3.38l-1.56-1.16a3.57,3.57,0,0,1,.3-.38"/><path class="cls-22" d="M18.19,151.29l1.56,1.16a3.3,3.3,0,0,0-.26.39l-1.57-1.15c.09-.14.17-.27.27-.4"/><path class="cls-23" d="M17.92,151.69l1.57,1.15a4.49,4.49,0,0,0-.24.42l-1.56-1.15c.07-.14.15-.28.23-.42"/><path class="cls-24" d="M17.69,152.11l1.56,1.15c-.07.16-.14.31-.2.47l-1.56-1.15c.06-.16.13-.32.2-.47"/><path class="cls-25" d="M17.49,152.58l1.56,1.15q-.11.27-.18.54l-1.56-1.16a4.72,4.72,0,0,1,.18-.53"/><path class="cls-26" d="M17.31,153.11l1.56,1.16a4.69,4.69,0,0,0-.14.65l-1.56-1.15a5.18,5.18,0,0,1,.14-.66"/><path class="cls-27" d="M17.17,153.77l1.56,1.15a4.93,4.93,0,0,0-.06,1.08l-1.56-1.15a4.9,4.9,0,0,1,.06-1.08"/><path class="cls-28" d="M17.11,154.85,18.67,156a5,5,0,0,0,.21,1.22l-1.56-1.15a5.11,5.11,0,0,1-.21-1.22"/><path class="cls-27" d="M17.32,156.07l1.56,1.15a4.5,4.5,0,0,0,.4.93L17.72,157a4.74,4.74,0,0,1-.4-.93"/><path class="cls-26" d="M17.72,157l1.56,1.15a3.66,3.66,0,0,0,.31.49L18,157.48a3,3,0,0,1-.31-.48"/></g></g></g><polygon class="cls-5" points="181.89 17.46 183.45 18.61 19.71 149.84 18.15 148.68 181.89 17.46"/><g class="cls-2"><g class="cls-29"><g class="cls-2"><path class="cls-8" d="M192.23,1.07l1.56,1.16.3.23-1.57-1.15a3.36,3.36,0,0,0-.29-.24"/><path class="cls-9" d="M192.52,1.31l1.57,1.15c.14.12.27.25.4.38l-1.56-1.15a4.86,4.86,0,0,0-.41-.38"/><path class="cls-10" d="M192.93,1.69l1.56,1.15c.14.15.27.31.4.48l-1.56-1.16c-.13-.17-.26-.32-.4-.47"/><path class="cls-11" d="M193.33,2.16l1.56,1.16,0,.06-1.56-1.16,0-.06"/></g></g></g><polygon class="cls-30" points="182.99 18.95 184.55 20.11 20.81 151.33 19.25 150.18 182.99 18.95"/><g class="cls-2"><g class="cls-31"><g class="cls-2"><path class="cls-32" d="M190.27,17.05l1.56,1.15A6.77,6.77,0,0,0,184.3,18l-1.56-1.15a6.74,6.74,0,0,1,7.53.18"/><path class="cls-33" d="M182.74,16.87,184.3,18a9,9,0,0,0-.81.56l-1.56-1.15a6.17,6.17,0,0,1,.81-.56"/><path class="cls-4" d="M181.93,17.43l1.56,1.15,0,0-1.56-1.15,0,0"/></g></g></g><g class="cls-2"><g class="cls-34"><g class="cls-2"><path class="cls-32" d="M190.27,17.05l1.56,1.15A6.77,6.77,0,0,0,184.3,18l-1.56-1.15a6.74,6.74,0,0,1,7.53.18"/></g></g></g><g class="cls-2"><g class="cls-35"><g class="cls-2"><path class="cls-32" d="M190.27,17.05l1.56,1.15A6.77,6.77,0,0,0,184.3,18l-1.56-1.15a6.74,6.74,0,0,1,7.53.18"/></g></g></g><g class="cls-2"><g class="cls-36"><g class="cls-2"><path class="cls-32" d="M190.27,17.05l1.56,1.15A6.77,6.77,0,0,0,184.3,18l-1.56-1.15a6.74,6.74,0,0,1,7.53.18"/></g></g></g><g class="cls-2"><g class="cls-37"><g class="cls-2"><path class="cls-32" d="M190.27,17.05l1.56,1.15A6.77,6.77,0,0,0,184.3,18l-1.56-1.15a6.74,6.74,0,0,1,7.53.18"/></g></g></g><g class="cls-2"><g class="cls-38"><g class="cls-2"><path class="cls-39" d="M189.09,18.65l1.56,1.16a4.93,4.93,0,0,0-5.49-.13l-1.56-1.16a5,5,0,0,1,5.49.13"/><path class="cls-40" d="M183.6,18.52l1.56,1.16a5.56,5.56,0,0,0-.58.41L183,18.93c.19-.15.38-.28.58-.41"/><path class="cls-19" d="M183,18.93l1.56,1.16,0,0L183,19l0,0"/></g></g></g><g class="cls-2"><g class="cls-41"><g class="cls-2"><path class="cls-32" d="M125,113l1.56,1.15a22.21,22.21,0,0,0-12.7,3.32l-1.56-1.15A22.13,22.13,0,0,1,125,113"/><path class="cls-33" d="M112.25,116.36l1.56,1.15a26.08,26.08,0,0,0-2.61,1.82l-1.56-1.16a26,26,0,0,1,2.61-1.81"/><path class="cls-4" d="M109.64,118.17l1.56,1.16-.12.1c-.64.51-1.25,1-1.83,1.61l-1.56-1.16c.57-.56,1.19-1.09,1.83-1.61l.12-.1"/><path class="cls-5" d="M107.69,119.88l1.56,1.16c-.56.54-1.09,1.1-1.58,1.67l-1.57-1.15q.75-.87,1.59-1.68"/><path class="cls-6" d="M106.1,121.56l1.57,1.15c-.47.55-.92,1.11-1.33,1.69l-1.57-1.16c.42-.57.86-1.13,1.33-1.68"/><path class="cls-7" d="M104.77,123.24l1.57,1.16c-.41.56-.79,1.14-1.15,1.72L103.63,125c.35-.59.74-1.16,1.14-1.73"/><path class="cls-8" d="M103.63,125l1.56,1.15c-.36.6-.69,1.2-1,1.81l-1.57-1.15c.31-.62.64-1.22,1-1.81"/><path class="cls-9" d="M102.63,126.78l1.57,1.15a21,21,0,0,0-.86,1.95l-1.56-1.16c.25-.65.54-1.3.85-1.94"/><path class="cls-10" d="M101.78,128.72l1.56,1.16a21,21,0,0,0-.72,2.16l-1.57-1.16c.21-.72.45-1.45.73-2.16"/><path class="cls-11" d="M101.05,130.88l1.57,1.16a21.57,21.57,0,0,0-.57,2.6l-1.56-1.16a23.63,23.63,0,0,1,.56-2.6"/><path class="cls-14" d="M100.49,133.48l1.56,1.16a19.79,19.79,0,0,0-.2,4.13l-1.57-1.15a20.65,20.65,0,0,1,.21-4.14"/><path class="cls-17" d="M100.28,137.62l1.57,1.15a17.75,17.75,0,0,0,.71,4.18L101,141.8a18.29,18.29,0,0,1-.72-4.18"/></g></g></g><g class="cls-2"><g class="cls-42"><g class="cls-2"><path class="cls-32" d="M125,113l1.56,1.15a22.21,22.21,0,0,0-12.7,3.32l-1.56-1.15A22.13,22.13,0,0,1,125,113"/></g></g></g><g class="cls-2"><g class="cls-43"><g class="cls-2"><path class="cls-8" d="M189.09,18.65l1.56,1.16.25.2-1.56-1.16-.25-.2"/><path class="cls-9" d="M189.34,18.85,190.9,20c.12.1.23.21.34.32l-1.56-1.15c-.11-.12-.23-.23-.34-.33"/><path class="cls-10" d="M189.68,19.18l1.56,1.15a3.19,3.19,0,0,1,.33.4L190,19.57a4.24,4.24,0,0,0-.33-.39"/><path class="cls-11" d="M190,19.57l1.56,1.16,0,.05-1.56-1.16,0-.05"/></g></g></g><g class="cls-2"><g class="cls-44"><g class="cls-2"><path class="cls-32" d="M125,113l1.56,1.15a22.21,22.21,0,0,0-12.7,3.32l-1.56-1.15A22.13,22.13,0,0,1,125,113"/></g></g></g><g class="cls-2"><g class="cls-45"><g class="cls-2"><path class="cls-39" d="M120.8,113.45l1.56,1.16a7.32,7.32,0,0,0-3.83,1.25L117,114.7a7.51,7.51,0,0,1,3.83-1.25"/><path class="cls-40" d="M117,114.7l1.56,1.16a12.11,12.11,0,0,0-1.35.94l-1.57-1.16a13.73,13.73,0,0,1,1.36-.94"/><path class="cls-19" d="M115.61,115.64l1.57,1.16c-.36.28-.7.58-1,.89l-1.56-1.15c.32-.31.67-.62,1-.9"/><path class="cls-20" d="M114.59,116.54l1.56,1.15c-.27.27-.53.54-.77.82l-1.56-1.16c.24-.27.5-.55.77-.81"/><path class="cls-21" d="M113.82,117.35l1.56,1.16c-.2.24-.39.47-.57.72l-1.56-1.16a9,9,0,0,1,.57-.72"/><path class="cls-22" d="M113.25,118.07l1.56,1.16a6,6,0,0,0-.41.62l-1.56-1.16c.12-.2.26-.41.41-.62"/><path class="cls-23" d="M112.84,118.69l1.56,1.16a5.86,5.86,0,0,0-.3.55l-1.57-1.16a6.26,6.26,0,0,1,.31-.55"/><path class="cls-24" d="M112.53,119.24l1.57,1.16a5.4,5.4,0,0,0-.23.49l-1.56-1.15c.07-.17.14-.33.22-.5"/><path class="cls-25" d="M112.31,119.74l1.56,1.15c-.06.17-.11.33-.16.49l-1.56-1.16a4.5,4.5,0,0,1,.16-.48"/><path class="cls-26" d="M112.15,120.22l1.56,1.16a4.48,4.48,0,0,0-.11.5L112,120.72a5,5,0,0,1,.11-.5"/><path class="cls-27" d="M112,120.72l1.56,1.16a3.88,3.88,0,0,0,0,.76L112,121.48a2.79,2.79,0,0,1,0-.76"/><path class="cls-28" d="M112,121.48l1.56,1.16a2.32,2.32,0,0,0,.06.38l-1.56-1.15a2.63,2.63,0,0,1-.06-.39"/><path class="cls-27" d="M112.08,121.87l1.56,1.15a2.42,2.42,0,0,0,.23.58l-1.57-1.15a2.56,2.56,0,0,1-.22-.58"/><path class="cls-26" d="M112.3,122.45l1.57,1.15a1.75,1.75,0,0,0,.18.29l-1.56-1.16c-.07-.09-.13-.19-.19-.28"/></g></g></g><g class="cls-2"><g class="cls-46"><g class="cls-2"><path class="cls-23" d="M190.27,17.05l1.56,1.15.35.27-1.56-1.15a4.11,4.11,0,0,0-.35-.27"/><path class="cls-24" d="M190.62,17.32l1.56,1.15c.16.14.32.29.47.45l-1.57-1.16c-.15-.15-.3-.3-.46-.44"/><path class="cls-25" d="M191.08,17.76l1.57,1.16a6.37,6.37,0,0,1,.46.55l-1.56-1.16a6.19,6.19,0,0,0-.47-.55"/><path class="cls-26" d="M191.55,18.31l1.56,1.16,0,.07-1.56-1.16,0-.07"/></g></g></g><g class="cls-2"><g class="cls-47"><g class="cls-2"><path class="cls-39" d="M125,113l1.56,1.15c-2.44.21-4.06.4-4.15.42l-1.56-1.16c.09,0,1.71-.2,4.15-.41"/></g></g></g><g class="cls-2"><g class="cls-48"><g class="cls-2"><path class="cls-17" d="M100.28,137.62l1.57,1.15a17.75,17.75,0,0,0,.71,4.18L101,141.8a18.29,18.29,0,0,1-.72-4.18"/><path class="cls-14" d="M101,141.8l1.56,1.15a16.78,16.78,0,0,0,1.4,3.33l-1.56-1.15a16.44,16.44,0,0,1-1.4-3.33"/><path class="cls-11" d="M102.4,145.13l1.56,1.15A15,15,0,0,0,105,148l.13.17L103.6,147l-.12-.17a15.81,15.81,0,0,1-1.08-1.67"/></g></g></g><g class="cls-2"><g class="cls-49"><g class="cls-2"><path class="cls-11" d="M102.4,145.13l1.56,1.15A15,15,0,0,0,105,148l.13.17L103.6,147l-.12-.17a15.81,15.81,0,0,1-1.08-1.67"/><path class="cls-10" d="M103.6,147l1.57,1.16a15.26,15.26,0,0,0,1.16,1.37l-1.57-1.15A17.6,17.6,0,0,1,103.6,147"/><path class="cls-9" d="M104.76,148.35l1.57,1.15a13.72,13.72,0,0,0,1.17,1.12l-1.56-1.16c-.41-.35-.8-.72-1.18-1.11"/><path class="cls-8" d="M105.94,149.46l1.56,1.16q.42.36.87.69l-1.56-1.16q-.45-.33-.87-.69"/></g></g></g><g class="cls-2"><g class="cls-50"><g class="cls-2"><path class="cls-32" d="M165.22,116.39l1.56,1.16c-1.05-.17-21-3.36-28.14-3.77a93.66,93.66,0,0,0-12.13.41L125,113a93.65,93.65,0,0,1,12.13-.42c7.12.42,27.09,3.61,28.14,3.77"/></g></g></g><g class="cls-2"><g class="cls-51"><g class="cls-2"><path class="cls-32" d="M165.22,116.39l1.56,1.16c-1.05-.17-21-3.36-28.14-3.77a93.66,93.66,0,0,0-12.13.41L125,113a93.65,93.65,0,0,1,12.13-.42c7.12.42,27.09,3.61,28.14,3.77"/></g></g></g><g class="cls-2"><g class="cls-52"><g class="cls-2"><path class="cls-39" d="M127.75,150.57l1.56,1.15c-7.17,3.94-15.32,3.74-20.94-.41l-1.56-1.16c5.62,4.16,13.77,4.35,20.94.42"/></g></g></g><g class="cls-2"><g class="cls-53"><g class="cls-2"><path class="cls-5" d="M127.75,150.57l1.56,1.15c-.07.08-.15.16-.22.25l-1.56-1.16.22-.24"/><path class="cls-6" d="M127.53,150.81l1.56,1.16c-.47.54-.91,1.1-1.32,1.67l-1.57-1.15c.42-.57.86-1.13,1.33-1.68"/><path class="cls-7" d="M126.2,152.49l1.57,1.15c-.41.57-.79,1.14-1.15,1.73l-1.56-1.16c.35-.58.74-1.16,1.14-1.72"/><path class="cls-8" d="M125.06,154.21l1.56,1.16c-.36.59-.69,1.2-1,1.81L124.07,156c.3-.61.63-1.21,1-1.81"/><path class="cls-9" d="M124.07,156l1.56,1.16c-.32.64-.6,1.28-.86,1.94L123.21,158c.25-.65.54-1.3.86-1.94"/></g></g></g><g class="cls-2"><g class="cls-54"><g class="cls-2"><path class="cls-9" d="M124.07,156l1.56,1.16c-.32.64-.6,1.28-.86,1.94L123.21,158c.25-.65.54-1.3.86-1.94"/></g></g></g><polygon class="cls-55" points="112.49 122.73 114.05 123.89 132.32 148.83 130.76 147.68 112.49 122.73"/><g class="cls-2"><g class="cls-56"><g class="cls-2"><path class="cls-19" d="M130.76,147.67l1.56,1.16c-.58.47-1.13,1-1.66,1.47l-1.56-1.15c.53-.51,1.08-1,1.66-1.48"/><path class="cls-20" d="M129.1,149.15l1.56,1.15c-.47.46-.92.94-1.35,1.42l-1.56-1.15c.43-.49.88-1,1.35-1.42"/></g></g></g><g class="cls-2"><g class="cls-57"><g class="cls-2"><path class="cls-9" d="M124.07,156l1.56,1.16c-.32.64-.6,1.28-.86,1.94L123.21,158c.25-.65.54-1.3.86-1.94"/><path class="cls-10" d="M123.21,158l1.56,1.16c-.28.71-.52,1.44-.73,2.17l-1.56-1.15c.21-.73.45-1.46.73-2.18"/><path class="cls-11" d="M122.48,160.14l1.56,1.15a23.63,23.63,0,0,0-.56,2.6l-1.56-1.16a21.79,21.79,0,0,1,.56-2.59"/><path class="cls-14" d="M121.92,162.73l1.56,1.16a20.31,20.31,0,0,0-.21,4.11l-1.56-1.16a20.35,20.35,0,0,1,.21-4.11"/></g></g></g><g class="cls-2"><g class="cls-58"><g class="cls-2"><path class="cls-14" d="M121.92,162.73l1.56,1.16a20.31,20.31,0,0,0-.21,4.11l-1.56-1.16a20.35,20.35,0,0,1,.21-4.11"/></g></g></g><g class="cls-2"><g class="cls-59"><g class="cls-2"><path class="cls-32" d="M165.22,116.39l1.56,1.16c-1.05-.17-21-3.36-28.14-3.77a93.66,93.66,0,0,0-12.13.41L125,113a93.65,93.65,0,0,1,12.13-.42c7.12.42,27.09,3.61,28.14,3.77"/></g></g></g><g class="cls-2"><g class="cls-60"><g class="cls-2"><path class="cls-32" d="M167.64,117.22l1.56,1.15a4.26,4.26,0,0,0-2.42-.82l-1.56-1.16a4.22,4.22,0,0,1,2.42.83"/></g></g></g><g class="cls-2"><g class="cls-61"><g class="cls-2"><path class="cls-14" d="M121.92,162.73l1.56,1.16a20.31,20.31,0,0,0-.21,4.11l-1.56-1.16a20.35,20.35,0,0,1,.21-4.11"/><path class="cls-17" d="M121.71,166.84l1.56,1.16a18.28,18.28,0,0,0,.73,4.24l-1.56-1.15a18.36,18.36,0,0,1-.73-4.25"/><path class="cls-14" d="M122.44,171.09l1.56,1.15a16.52,16.52,0,0,0,1.4,3.3l-1.56-1.15a16.77,16.77,0,0,1-1.4-3.3"/><path class="cls-11" d="M123.84,174.39l1.56,1.15a13.92,13.92,0,0,0,1.07,1.67l.13.18L125,176.23l-.13-.17a15.71,15.71,0,0,1-1.07-1.67"/></g></g></g><g class="cls-2"><g class="cls-62"><g class="cls-2"><path class="cls-23" d="M167.64,117.22l1.56,1.15.24.19-1.57-1.16-.23-.18"/><path class="cls-24" d="M167.87,117.4l1.57,1.16c.11.09.21.19.31.29l-1.56-1.15a3,3,0,0,0-.32-.3"/><path class="cls-25" d="M168.19,117.7l1.56,1.15a3.57,3.57,0,0,1,.31.37l-1.56-1.15c-.1-.13-.2-.25-.31-.37"/><path class="cls-26" d="M168.5,118.07l1.56,1.15,0,0a4.08,4.08,0,0,1,.28.44l-1.56-1.15a4.73,4.73,0,0,0-.28-.44l0-.05"/><path class="cls-27" d="M168.82,118.56l1.56,1.15a4.59,4.59,0,0,1,.38.88l-1.57-1.15a3.81,3.81,0,0,0-.37-.88"/><path class="cls-28" d="M169.19,119.44l1.57,1.15a5.14,5.14,0,0,1,.19,1.12l-1.56-1.16a4.45,4.45,0,0,0-.2-1.11"/><path class="cls-27" d="M169.39,120.55l1.56,1.16a5.41,5.41,0,0,1,0,1l-1.56-1.15a5.57,5.57,0,0,0,0-1"/><path class="cls-26" d="M169.34,121.54l1.56,1.15c0,.12-.05.25-.07.38l-1.57-1.16c0-.12.06-.25.08-.37"/></g></g></g><g class="cls-2"><g class="cls-63"><g class="cls-2"><path class="cls-11" d="M123.84,174.39l1.56,1.15a13.92,13.92,0,0,0,1.07,1.67l.13.18L125,176.23l-.13-.17a15.71,15.71,0,0,1-1.07-1.67"/><path class="cls-10" d="M125,176.23l1.56,1.16a15.26,15.26,0,0,0,1.16,1.37l-1.57-1.16a17,17,0,0,1-1.15-1.37"/><path class="cls-9" d="M126.19,177.6l1.57,1.16a15.34,15.34,0,0,0,1.17,1.11l-1.56-1.16a15.37,15.37,0,0,1-1.18-1.11"/><path class="cls-8" d="M127.37,178.71l1.56,1.16q.42.36.87.69l-1.57-1.15c-.29-.22-.58-.45-.86-.7"/></g></g></g><g class="cls-2"><g class="cls-64"><g class="cls-2"><path class="cls-39" d="M150.07,179.3l1.56,1.16c-7.37,4.46-16,4.43-21.83.1l-1.57-1.15c5.86,4.33,14.46,4.35,21.84-.11"/></g></g></g><polygon class="cls-55" points="130.76 147.68 132.32 148.83 151.25 174.68 149.69 173.52 130.76 147.68"/><g class="cls-2"><g class="cls-65"><g class="cls-2"><path class="cls-26" d="M160.19,166.78l1.56,1.15-.06.23L160.13,167l.06-.22"/><path class="cls-25" d="M160.13,167l1.56,1.16q-.08.27-.18.54L160,167.54q.11-.27.18-.54"/><path class="cls-24" d="M160,167.54l1.56,1.16c-.08.19-.16.39-.26.58l-1.56-1.15c.09-.2.18-.39.26-.59"/><path class="cls-23" d="M159.69,168.13l1.56,1.15c-.11.23-.24.45-.37.67l-1.56-1.15c.13-.22.26-.45.37-.67"/><path class="cls-22" d="M159.32,168.8l1.56,1.15c-.16.26-.33.52-.52.78l-1.56-1.15c.19-.26.36-.52.52-.78"/><path class="cls-21" d="M158.8,169.58l1.56,1.15c-.22.3-.45.6-.7.89l-1.56-1.16c.25-.29.48-.58.7-.88"/><path class="cls-20" d="M158.1,170.46l1.56,1.16c-.29.33-.6.66-.92,1l-1.57-1.15a12.26,12.26,0,0,0,.93-1"/><path class="cls-19" d="M157.17,171.44l1.57,1.15c-.37.35-.75.69-1.14,1L156,172.43c.39-.31.77-.64,1.13-1"/><path class="cls-40" d="M156,172.43l1.56,1.16a13.67,13.67,0,0,1-1.32.92l-1.56-1.15a12.22,12.22,0,0,0,1.32-.93"/><path class="cls-39" d="M154.72,173.36l1.56,1.15c-1.72,1-3.45,1.46-4.56.65L150.16,174c1.11.82,2.84.4,4.56-.64"/></g></g></g><g class="cls-2"><g class="cls-66"><g class="cls-2"><path class="cls-26" d="M149.69,173.52l1.56,1.16,0,0-1.56-1.15,0,0"/><path class="cls-25" d="M149.71,173.55l1.56,1.15a1.46,1.46,0,0,0,.16.19l-1.56-1.15a1.46,1.46,0,0,1-.16-.19"/><path class="cls-24" d="M149.87,173.74l1.56,1.15.17.17L150,173.91c-.06-.06-.12-.11-.17-.17"/><path class="cls-23" d="M150,173.91l1.56,1.15.12.1L150.16,174l-.12-.09"/></g></g></g><g class="cls-2"><g class="cls-67"><g class="cls-2"><path class="cls-26" d="M169.26,121.91l1.57,1.16c-.16,1-3.19,20.09-4.48,26.76-1,5-2,9.11-2.79,12.12-.09.33-.18.65-.26,1l-1.56-1.16.26-.95c.82-3,1.82-7.1,2.79-12.12,1.29-6.67,4.31-25.76,4.47-26.77"/><path class="cls-25" d="M161.74,161.75l1.56,1.16c-.91,3.25-1.52,4.93-1.55,5l-1.56-1.15c0-.1.63-1.77,1.55-5"/></g></g></g><g class="cls-2"><g class="cls-68"><g class="cls-2"><path class="cls-27" d="M162,160.8l1.56,1.15c0,.46-.09.92-.16,1.38l-1.57-1.15c.07-.46.13-.92.17-1.38"/><path class="cls-26" d="M161.83,162.18l1.57,1.15a23.63,23.63,0,0,1-.56,2.6l-1.57-1.16a21.37,21.37,0,0,0,.56-2.59"/><path class="cls-25" d="M161.27,164.77l1.57,1.16c-.21.72-.45,1.45-.73,2.16l-1.56-1.15a22,22,0,0,0,.72-2.17"/></g></g></g><g class="cls-2"><g class="cls-69"><g class="cls-2"><path class="cls-25" d="M161.27,164.77l1.57,1.16c-.21.72-.45,1.45-.73,2.16l-1.56-1.15a22,22,0,0,0,.72-2.17"/><path class="cls-24" d="M160.55,166.94l1.56,1.15a21,21,0,0,1-.86,1.95l-1.56-1.16c.32-.64.6-1.29.86-1.94"/></g></g></g><polygon class="cls-55" points="18.03 157.48 19.59 158.64 94.37 260.73 92.81 259.58 18.03 157.48"/><g class="cls-2"><g class="cls-70"><g class="cls-2"><path class="cls-24" d="M160.55,166.94l1.56,1.15a21,21,0,0,1-.86,1.95l-1.56-1.16c.32-.64.6-1.29.86-1.94"/><path class="cls-23" d="M159.69,168.88l1.56,1.16q-.45.92-1,1.8l-1.56-1.15c.36-.59.69-1.2,1-1.81"/><path class="cls-22" d="M158.7,170.69l1.56,1.15c-.36.59-.74,1.17-1.14,1.73l-1.57-1.16c.41-.56.79-1.13,1.15-1.72"/><path class="cls-21" d="M157.55,172.41l1.57,1.16c-.42.57-.86,1.13-1.33,1.68l-1.56-1.16a21.18,21.18,0,0,0,1.32-1.68"/><path class="cls-20" d="M156.23,174.09l1.56,1.16c-.5.57-1,1.13-1.58,1.67l-1.56-1.16c.55-.54,1.08-1.09,1.58-1.67"/><path class="cls-19" d="M154.65,175.76l1.56,1.16q-.87.84-1.83,1.62l-.13.1-1.56-1.16.12-.1c.65-.52,1.26-1.06,1.84-1.62"/><path class="cls-40" d="M152.69,177.48l1.56,1.16a28,28,0,0,1-2.62,1.82l-1.56-1.16a26.2,26.2,0,0,0,2.62-1.82"/><path class="cls-39" d="M150.07,179.3l1.56,1.16c-7.37,4.46-16,4.43-21.83.1l-1.57-1.15c5.86,4.33,14.46,4.35,21.84-.11"/></g></g></g><g class="cls-2"><g class="cls-71"><g class="cls-2"><path class="cls-26" d="M92.81,259.58l1.56,1.15,0,0-1.56-1.15,0-.05"/><path class="cls-25" d="M92.85,259.63l1.56,1.15a4.47,4.47,0,0,0,.34.4L93.19,260a4.23,4.23,0,0,1-.34-.4"/><path class="cls-24" d="M93.19,260l1.56,1.15a3.4,3.4,0,0,0,.34.32l-1.56-1.15a3.47,3.47,0,0,1-.34-.32"/><path class="cls-23" d="M93.53,260.35l1.56,1.15a2.43,2.43,0,0,0,.25.2l-1.56-1.15-.25-.2"/></g></g></g><g class="cls-2"><g class="cls-72"><g class="cls-2"><path class="cls-4" d="M99.87,260.25l1.56,1.15,0,0-1.57-1.15,0,0"/><path class="cls-33" d="M99.84,260.27l1.57,1.15a5.68,5.68,0,0,1-.59.41l-1.56-1.15a5.56,5.56,0,0,0,.58-.41"/><path class="cls-32" d="M99.26,260.68l1.56,1.15a4.91,4.91,0,0,1-5.48-.13l-1.56-1.15a4.93,4.93,0,0,0,5.48.13"/></g></g></g><path class="cls-73" d="M18,157.48a5.4,5.4,0,0,1,1.22-7.3L183,19a4.88,4.88,0,0,1,7.06.67l74.78,102.1a5.39,5.39,0,0,1-1.22,7.3L99.87,260.25a4.88,4.88,0,0,1-7.06-.67ZM125,113a22.72,22.72,0,0,0-15.43,5.23c-9.38,7.52-12.08,20.29-6,28.53,5.28,7.22,15.51,8.58,24.27,3.77-6.72,7.59-8.13,18.27-2.84,25.49,6,8.24,18.53,8.84,27.9,1.32A24.3,24.3,0,0,0,162,160.8c.82-3,1.82-7.1,2.79-12.12,1.29-6.67,4.31-25.76,4.47-26.77a4.6,4.6,0,0,0-.72-3.79,4.21,4.21,0,0,0-3.32-1.73c-1.05-.16-21-3.35-28.14-3.77A93.65,93.65,0,0,0,125,113"/><polygon class="cls-74" points="16.48 158.73 18.04 159.88 92.82 261.97 91.26 260.82 16.48 158.73"/><g class="cls-2"><g class="cls-75"><g class="cls-2"><path class="cls-11" d="M91.26,260.82,92.82,262l.05.07-1.56-1.15,0-.07"/><path class="cls-10" d="M91.31,260.89,92.87,262a6.44,6.44,0,0,0,.47.55l-1.56-1.15a6.19,6.19,0,0,1-.47-.55"/><path class="cls-9" d="M91.78,261.44l1.56,1.15a5,5,0,0,0,.47.45l-1.57-1.16c-.16-.14-.31-.29-.46-.44"/><path class="cls-8" d="M92.24,261.88,93.81,263l.34.27-1.56-1.15-.35-.28"/></g></g></g><g class="cls-2"><g class="cls-76"><g class="cls-2"><path class="cls-19" d="M101,261.75l1.56,1.15,0,0-1.57-1.15,0,0"/><path class="cls-40" d="M100.93,261.78l1.57,1.15a7.86,7.86,0,0,1-.81.56l-1.56-1.15a8.26,8.26,0,0,0,.8-.56"/><path class="cls-39" d="M100.13,262.34l1.56,1.15a6.77,6.77,0,0,1-7.54-.18l-1.56-1.15a6.79,6.79,0,0,0,7.54.18"/></g></g></g><polygon class="cls-74" points="190.05 19.62 191.61 20.78 266.39 122.87 264.83 121.72 190.05 19.62"/><polygon class="cls-5" points="263.61 129.02 265.18 130.18 101.43 261.4 99.87 260.25 263.61 129.02"/><g class="cls-2"><g class="cls-77"><g class="cls-2"><path class="cls-11" d="M264.83,121.72l1.56,1.15a5.14,5.14,0,0,1,.32.49l-1.56-1.16a5,5,0,0,0-.32-.48"/><path class="cls-14" d="M265.15,122.2l1.56,1.16a4.7,4.7,0,0,1,.39.93l-1.56-1.15a5.17,5.17,0,0,0-.39-.94"/><path class="cls-17" d="M265.54,123.14l1.56,1.15a5.11,5.11,0,0,1,.21,1.22l-1.56-1.16a5,5,0,0,0-.21-1.21"/><path class="cls-14" d="M265.75,124.35l1.56,1.16a5.45,5.45,0,0,1-.05,1.07l-1.56-1.15a5.59,5.59,0,0,0,.05-1.08"/><path class="cls-11" d="M265.7,125.43l1.56,1.15c0,.22-.08.44-.14.66l-1.56-1.15c.06-.22.1-.44.14-.66"/><path class="cls-10" d="M265.56,126.09l1.56,1.15q-.08.27-.18.54l-1.56-1.16a5.52,5.52,0,0,0,.18-.53"/><path class="cls-9" d="M265.38,126.62l1.56,1.16a4.69,4.69,0,0,1-.21.46l-1.56-1.15a4.84,4.84,0,0,0,.21-.47"/><path class="cls-8" d="M265.17,127.09l1.56,1.15c-.07.14-.15.29-.23.42l-1.56-1.15c.08-.14.16-.28.23-.42"/><path class="cls-7" d="M264.94,127.51l1.56,1.15c-.08.14-.17.27-.26.4l-1.56-1.15.26-.4"/><path class="cls-6" d="M264.68,127.91l1.56,1.15-.3.38-1.57-1.15.31-.38"/><path class="cls-5" d="M264.37,128.29l1.57,1.15c-.12.13-.23.26-.36.38L264,128.66c.12-.12.24-.24.35-.37"/><path class="cls-4" d="M264,128.66l1.56,1.16c-.13.12-.26.24-.41.36L263.61,129a3.52,3.52,0,0,0,.41-.36"/></g></g></g><path class="cls-78" d="M16.48,158.73a7.44,7.44,0,0,1,1.67-10L181.89,17.46a6.71,6.71,0,0,1,9.71.92l74.78,102.09a7.43,7.43,0,0,1-1.67,10.05L101,261.75a6.71,6.71,0,0,1-9.71-.93ZM183,19,19.25,150.18a5.4,5.4,0,0,0-1.22,7.3l74.78,102.1a4.88,4.88,0,0,0,7.06.67L263.61,129a5.39,5.39,0,0,0,1.22-7.3L190.05,19.62A4.88,4.88,0,0,0,183,19"/><path class="cls-78" d="M112.49,122.73c-2.33-3.17,4.31-9.4,8.31-9.28.09,0,1.71-.2,4.15-.41a93.65,93.65,0,0,1,12.13-.42c7.12.42,27.09,3.61,28.14,3.77a4.21,4.21,0,0,1,3.32,1.73,4.6,4.6,0,0,1,.72,3.79c-.16,1-3.18,20.1-4.47,26.77-1,5-2,9.1-2.79,12.12-1.06,3.88-1.78,5.87-1.81,6-.93,4.07-8.18,9.92-10.5,6.74l-18.93-25.85Z"/><path class="cls-78" d="M124.91,176.06c-5.29-7.22-3.88-17.9,2.84-25.49a25.1,25.1,0,0,1,3-2.9l18.93,25.85c2.32,3.18,9.57-2.67,10.5-6.74,0-.11.75-2.1,1.81-6a24.3,24.3,0,0,1-9.19,16.58C143.44,184.9,131,184.3,124.91,176.06Z"/><polygon class="cls-55" points="191.6 18.38 193.16 19.54 267.94 121.63 266.38 120.47 191.6 18.38"/><polygon class="cls-30" points="264.71 130.52 266.27 131.68 102.53 262.9 100.97 261.75 264.71 130.52"/><g class="cls-2"><g class="cls-79"><g class="cls-2"><path class="cls-26" d="M266.38,120.47l1.56,1.16a4.76,4.76,0,0,1,.43.67l-1.56-1.16a6.9,6.9,0,0,0-.43-.67"/><path class="cls-27" d="M266.81,121.14l1.56,1.16a6.26,6.26,0,0,1,.55,1.28l-1.56-1.15a6.68,6.68,0,0,0-.55-1.29"/><path class="cls-28" d="M267.36,122.43l1.56,1.15a6.88,6.88,0,0,1,.29,1.68l-1.56-1.15a7.3,7.3,0,0,0-.29-1.68"/><path class="cls-27" d="M267.65,124.11l1.56,1.15a6.81,6.81,0,0,1-.08,1.49l-1.56-1.16a7.35,7.35,0,0,0,.08-1.48"/><path class="cls-26" d="M267.57,125.59l1.56,1.16a7.21,7.21,0,0,1-.19.9l-1.56-1.16a6.85,6.85,0,0,0,.19-.9"/><path class="cls-25" d="M267.38,126.49l1.56,1.16a6.28,6.28,0,0,1-.25.73l-1.56-1.15a6.44,6.44,0,0,0,.25-.74"/><path class="cls-24" d="M267.13,127.23l1.56,1.15a5.17,5.17,0,0,1-.28.64l-1.56-1.15c.1-.21.2-.42.28-.64"/><path class="cls-23" d="M266.85,127.87l1.56,1.15a6.55,6.55,0,0,1-.32.58l-1.56-1.15a6.55,6.55,0,0,0,.32-.58"/><path class="cls-22" d="M266.53,128.45l1.56,1.15a6.49,6.49,0,0,1-.36.55L266.17,129a6.33,6.33,0,0,0,.36-.54"/><path class="cls-21" d="M266.17,129l1.56,1.16c-.13.18-.27.35-.41.52l-1.56-1.15c.14-.17.28-.35.41-.53"/><path class="cls-20" d="M265.76,129.52l1.56,1.15c-.15.18-.32.35-.49.52L265.27,130c.17-.16.33-.34.49-.51"/><path class="cls-19" d="M265.27,130l1.56,1.16a6.77,6.77,0,0,1-.56.49l-1.56-1.16a6.55,6.55,0,0,0,.56-.49"/></g></g></g><path class="cls-73" d="M1.1,156.31a6.45,6.45,0,0,1,1.43-8.68L185,1.41a5.8,5.8,0,0,1,8.38.81l88.4,120.68a6.43,6.43,0,0,1-1.44,8.66L97.87,277.79a5.81,5.81,0,0,1-8.38-.8ZM181.89,17.46,18.15,148.68a7.44,7.44,0,0,0-1.67,10L91.26,260.82a6.71,6.71,0,0,0,9.71.93L264.71,130.52a7.43,7.43,0,0,0,1.67-10.05L191.6,18.38a6.71,6.71,0,0,0-9.71-.92"/><path class="cls-78" d="M127.74,150.57a26,26,0,0,1,3-2.9l-18.27-24.94c-2.33-3.17,4.31-9.4,8.31-9.28.09,0,1.71-.2,4.15-.41a22.72,22.72,0,0,0-15.43,5.23c-9.38,7.52-12.08,20.29-6,28.53C108.76,154,119,155.38,127.74,150.57Z"/><g class="cls-2"><g class="cls-80"><g class="cls-2"><path class="cls-4" d="M97.87,277.79l1.56,1.15,0,0-1.56-1.16,0,0"/><path class="cls-33" d="M97.84,277.81,99.4,279q-.33.25-.69.48l-1.56-1.16a6.12,6.12,0,0,0,.69-.48"/><path class="cls-32" d="M97.15,278.29l1.56,1.16a5.89,5.89,0,0,1-6.52-.16l-1.56-1.16a5.87,5.87,0,0,0,6.52.16"/></g></g></g><polygon class="cls-74" points="193.37 2.22 194.93 3.38 283.33 124.05 281.77 122.9 193.37 2.22"/><polygon class="cls-5" points="280.32 131.56 281.89 132.72 99.43 278.94 97.87 277.79 280.32 131.56"/><g class="cls-2"><g class="cls-81"><g class="cls-2"><path class="cls-11" d="M281.77,122.9l1.56,1.15c.13.19.26.38.37.57l-1.57-1.15a5.5,5.5,0,0,0-.36-.57"/><path class="cls-14" d="M282.13,123.47l1.57,1.15a5.92,5.92,0,0,1,.46,1.11l-1.56-1.16a5.06,5.06,0,0,0-.47-1.1"/><path class="cls-17" d="M282.6,124.57l1.56,1.16a5.51,5.51,0,0,1,.25,1.45L282.85,126a5.51,5.51,0,0,0-.25-1.45"/><path class="cls-14" d="M282.85,126l1.56,1.16a6.2,6.2,0,0,1-.06,1.29l-1.56-1.16a7,7,0,0,0,.06-1.29"/><path class="cls-11" d="M282.79,127.31l1.56,1.16a7.25,7.25,0,0,1-.17.78l-1.56-1.16a7.25,7.25,0,0,0,.17-.78"/><path class="cls-10" d="M282.62,128.09l1.56,1.16c-.06.21-.13.43-.21.64l-1.56-1.16c.08-.21.15-.42.21-.64"/><path class="cls-9" d="M282.41,128.73l1.56,1.16c-.08.18-.16.37-.25.55l-1.56-1.16c.09-.18.17-.36.25-.55"/><path class="cls-8" d="M282.16,129.28l1.56,1.16a4.82,4.82,0,0,1-.27.5l-1.56-1.16a4.82,4.82,0,0,0,.27-.5"/><path class="cls-7" d="M281.89,129.78l1.56,1.16c-.1.16-.2.32-.31.47l-1.57-1.16a4.87,4.87,0,0,0,.32-.47"/><path class="cls-6" d="M281.57,130.25l1.57,1.16q-.17.22-.36.45l-1.56-1.16a5.37,5.37,0,0,0,.35-.45"/><path class="cls-5" d="M281.22,130.7l1.56,1.16c-.13.15-.27.3-.41.44l-1.57-1.16a5.77,5.77,0,0,0,.42-.44"/><path class="cls-4" d="M280.8,131.14l1.57,1.16q-.24.22-.48.42l-1.56-1.16a6.14,6.14,0,0,0,.47-.42"/></g></g></g></g></g></g></svg>